<?xml version="1.0"?>
<svg xmlns="http://www.w3.org/2000/svg" id="Capa_1" enable-background="new 0 0 512 512" height="512px" viewBox="0 0 512 512" width="512px"><g transform="matrix(0.922745 0 0 0.922745 19.7773 19.7773)"><path d="m466 241h-165v-30h105c3.979 0 7.794-1.581 10.606-4.394l60-60c5.858-5.858 5.858-15.355 0-21.213l-60-60c-2.812-2.812-6.627-4.393-10.606-4.393h-105v-16c0-24.813-20.187-45-45-45s-45 20.187-45 45v16h-165c-8.284 0-15 6.716-15 15v120c0 8.284 6.716 15 15 15h165v30h-105c-3.979 0-7.794 1.581-10.606 4.394l-60 60c-5.858 5.858-5.858 15.355 0 21.213l60 60c2.812 2.812 6.627 4.393 10.606 4.393h105v106c0 8.284 6.716 15 15 15h60c8.284 0 15-6.716 15-15v-106h165c8.284 0 15-6.716 15-15v-120c0-8.284-6.716-15-15-15zm-225-196c0-8.271 6.729-15 15-15s15 6.729 15 15v16h-30zm-180 46h338.787l45 45-45 45h-338.787zm180 120h30v30h-30zm30 271h-30v-91h30zm180-121h-338.787l-45-45 45-45h338.787z" data-original="#000000" class="active-path" data-old_color="#000000" fill="#129514"/></g> </svg>
