<svg height="64" viewBox="0 0 18.062 18.062" width="64" xmlns="http://www.w3.org/2000/svg" xmlns:xlink="http://www.w3.org/1999/xlink"><defs><path id="a" d="m48.782 147.85-1.925-.006-.957-1.67.967-1.664 1.925.006.957 1.67z"/></defs><g transform="matrix(1.750568 0 0 1.750568 -73.527298 -246.88563)"><use fill="#c12766" xlink:href="#a"/><use fill="#3e489f" x="-3.042" xlink:href="#a" y="1.746"/><use fill="#714099" x="-.018" xlink:href="#a" y="3.5"/><use fill="#78932c" x="-3.025" xlink:href="#a" y="-1.73"/><use fill="#cf242a" x="-.002" xlink:href="#a" y="-3.48"/><g fill="#fff"><circle cx="47.824" cy="142.702" r=".292"/><circle cx="44.8" cy="144.449" r=".292"/><circle cx="44.784" cy="147.927" r=".292"/><circle cx="47.806" cy="149.68" r=".292"/></g><path d="m47.64 142.783-2.648 1.517m-.204.377.01 3.052m.2.325 2.624 1.56" fill="none" stroke="#fff" stroke-width=".097"/><circle cx="47.825" cy="146.181" fill="#fff" r=".292"/><path d="m47.815 142.907.01 3.052m.005.446.01 3.052m-.196-3.157-2.648 1.517m.012-3.23 2.624 1.56" fill="none" stroke="#fff" stroke-width=".097"/></g></svg>