<svg width="300" height="300" viewBox="0 0 300 300" fill="none" xmlns="http://www.w3.org/2000/svg">
<rect width="300" height="300" fill="white"/>
<path d="M66.1125 70.9414L50 78.9992V220.421L66.1125 228.432L66.2094 228.316V71.0523L66.1125 70.9414Z" fill="#8C3123"/>
<path d="M152.344 207.905L66.1125 228.432V70.9414L152.344 91.0203V207.905Z" fill="#E05243"/>
<path d="M113.42 175.77L149.997 180.426L150.227 179.896L150.432 119.92L149.997 119.451L113.42 124.04V175.77Z" fill="#8C3123"/>
<path d="M149.997 208.136L233.88 228.476L234.012 228.266L234.01 71.082L233.877 70.9414L149.997 91.2508V208.136Z" fill="#8C3123"/>
<path d="M186.584 175.77L149.997 180.426V119.451L186.584 124.04V175.77Z" fill="#E05243"/>
<path d="M186.584 99.0242L149.997 105.692L113.42 99.0242L149.951 89.4492L186.584 99.0242Z" fill="#5E1F18"/>
<path d="M186.584 200.72L149.997 194.008L113.42 200.72L149.952 210.917L186.584 200.72Z" fill="#F2B0A9"/>
<path d="M113.42 99.0242L149.997 89.9727L150.293 89.8813V29.2445L149.997 29L113.42 47.2914V99.0242Z" fill="#8C3123"/>
<path d="M186.584 99.0242L149.997 89.9727V29L186.584 47.2914V99.0242Z" fill="#E05243"/>
<path d="M149.997 270.741L113.417 252.456V200.724L149.997 209.772L150.535 210.384L150.389 269.685L149.997 270.741Z" fill="#8C3123"/>
<path d="M149.997 270.74L186.58 252.455V200.723L149.997 209.771V270.74ZM233.88 70.9414L250 78.9992V220.421L233.88 228.476V70.9414Z" fill="#E05243"/>
</svg>
