<svg width="24" height="24" viewBox="0 0 24 24" fill="none" xmlns="http://www.w3.org/2000/svg">
<path d="M19.8076 12C19.8076 11.3064 19.7192 10.6202 19.5445 9.95524L20.5605 9.20779L18.5885 5.79218L17.4314 6.29913C16.4421 5.31694 15.2308 4.61701 13.8915 4.25374L13.7523 3H9.80822L9.66893 4.25374C8.32962 4.61701 7.11831 5.31694 6.12908 6.29913L4.97202 5.79218L3 9.20779L4.01602 9.95524C3.84129 10.6202 3.75291 11.3064 3.75291 12C3.75291 12.6936 3.84132 13.3798 4.01602 14.0448L3 14.7922L4.97202 18.2078L6.12908 17.7008C7.11834 18.6831 8.32965 19.383 9.66893 19.7462L9.80822 21H13.7523L13.8915 19.7462C15.2309 19.383 16.4422 18.683 17.4314 17.7008L18.5885 18.2078L20.5605 14.7922L19.5445 14.0448C19.7192 13.3798 19.8076 12.6936 19.8076 12V12ZM13.2941 18.8074L12.9256 18.889L12.8082 19.9453H10.7522L10.6348 18.889L10.2664 18.8074C8.8693 18.4982 7.61623 17.7742 6.64268 16.7137L6.3878 16.436L5.41341 16.8629L4.3854 15.0824L5.24058 14.4533L5.12752 14.0937C4.91524 13.4184 4.80759 12.714 4.80759 12C4.80759 11.2859 4.91524 10.5815 5.12752 9.9063L5.24058 9.54673L4.3854 8.91764L5.41341 7.13708L6.3878 7.56398L6.64268 7.28632C7.61623 6.2258 8.8693 5.50179 10.2664 5.19259L10.6348 5.11103L10.7522 4.05469H12.8082L12.9256 5.11103L13.2941 5.19259C14.6912 5.50182 15.9443 6.22583 16.9178 7.28632L17.1727 7.56398L18.1471 7.13708L19.1751 8.91764L18.3199 9.54673L18.433 9.9063C18.6452 10.5816 18.7529 11.286 18.7529 12C18.7529 12.714 18.6453 13.4184 18.433 14.0937L18.3199 14.4533L19.1751 15.0824L18.1471 16.8629L17.1727 16.436L16.9178 16.7137C15.9443 17.7742 14.6912 18.4982 13.2941 18.8074V18.8074Z" fill="#005AD9"/>
<path d="M9.68619 10.7926L8.93268 10.0547L7.00391 12.0241L8.97336 13.9529L9.71129 13.1993L8.49538 12.0085L9.68619 10.7926Z" fill="#005AD9"/>
<path d="M13.8747 10.7926L15.0655 12.0085L13.8496 13.1993L14.5875 13.9529L16.557 12.0241L14.6282 10.0547L13.8747 10.7926Z" fill="#005AD9"/>
<path d="M10.5176 15.4512L12.0175 8.3229L13.0501 8.54017L11.5502 15.6684L10.5176 15.4512Z" fill="#005AD9"/>
</svg>
