<svg width="300" height="300" viewBox="0 0 300 300" fill="none" xmlns="http://www.w3.org/2000/svg">
<rect width="300" height="300" fill="white"/>
<path d="M206.506 155.867C182.48 155.867 163.007 175.341 163.007 199.362C163.007 223.386 182.48 242.863 206.506 242.863C230.527 242.863 250 223.386 250 199.362C250 175.341 230.527 155.867 206.506 155.867ZM93.4966 155.87C69.475 155.872 50 175.341 50 199.364C50 223.386 69.475 242.861 93.4966 242.861C117.52 242.861 136.995 223.386 136.995 199.364C136.995 175.34 117.52 155.87 93.4944 155.87H93.4966ZM193.497 101.497C193.497 125.518 174.024 144.997 150.002 144.997C125.977 144.997 106.504 125.518 106.504 101.497C106.504 77.475 125.977 58 150.002 58C174.024 58 193.495 77.475 193.495 101.497H193.497Z" fill="url(#paint0_radial)"/>
<defs>
<radialGradient id="paint0_radial" cx="0" cy="0" r="1" gradientUnits="userSpaceOnUse" gradientTransform="translate(150.027 159.147) scale(132.6 122.564)">
<stop stop-color="#FFB900"/>
<stop offset="0.6" stop-color="#F95D8F"/>
<stop offset="0.999" stop-color="#F95353"/>
</radialGradient>
</defs>
</svg>
