<svg width="300" height="300" viewBox="0 0 300 300" fill="none" xmlns="http://www.w3.org/2000/svg">
<rect width="300" height="300" fill="white"/>
<path d="M249.993 107.29L246.781 107.236L150.068 78.6031L150.01 77.2781V29L250 79.0047L249.993 107.29Z" fill="#D9A741"/>
<path d="M150 80.1719L150.01 29L50.0133 78.9852L50 220.403L50.05 220.428V220.43L149.99 270.409L150.322 269.947L150.193 222.391L149.997 222.127L143.75 217.672L66.4062 194.625L66.7969 105.172L150 80.1719Z" fill="#876929"/>
<path d="M164.954 181.577L62.7739 195.951L62.781 103.438L164.961 117.831L164.954 181.577Z" fill="#D9A741"/>
<path d="M113.175 175.729L149.997 180.416L150.003 118.965L113.182 123.648L113.175 175.729ZM76.082 171.009L99.9781 174.046L99.9852 125.325L76.082 128.37V171.009Z" fill="#876929"/>
<path d="M62.7812 103.437L150.01 77.2773L249.993 107.289L165.024 117.837L62.7812 103.437Z" fill="#624A1E"/>
<path d="M249.943 167.575L149.997 180.188L150.003 118.965L249.943 131.696V167.575ZM249.936 192.152L247.785 192.245L150.304 221.752L149.997 222.127L149.99 270.409L249.936 220.447V192.152Z" fill="#D9A741"/>
<path d="M62.7739 195.95L149.997 222.126L249.936 192.151L164.954 181.576L62.7739 195.95Z" fill="#FAD791"/>
</svg>
