<svg width="300" height="300" viewBox="0 0 300 300" fill="none" xmlns="http://www.w3.org/2000/svg">
<rect width="300" height="300" fill="white"/>
<path d="M83.4015 220.012L60.0281 225.345V73.9727L83.4015 79.3156V220.012Z" fill="#F68536"/>
<path d="M112.564 228.946L83.4016 237.234V62.2906L112.564 70.568V228.946ZM149.973 238.126L112.564 251.816V47.7078L149.973 61.3922V238.126ZM250 220.468L149.973 270.481V29L250 79.0133V220.468Z" fill="#F68536"/>
<path d="M130.034 38.9711L149.973 29V270.481L130.034 260.513V38.9711ZM97.1289 55.4219L112.564 47.7047V251.777L97.1289 244.059V55.4219ZM71.1063 68.4352L83.4016 62.2875V237.194L71.1063 231.042V68.4352ZM60.0281 73.9727L50 78.9867V220.498L60.0281 225.509V73.9727Z" fill="#9D5025"/>
</svg>
