<svg width="300" height="300" viewBox="0 0 300 300" fill="none" xmlns="http://www.w3.org/2000/svg">
<rect width="300" height="300" fill="white"/>
<path d="M127.246 231.276L106.595 225.488L87.0632 203.216L111.494 202.542L127.246 231.276ZM79.4921 216.588L67.871 213.333L56.8882 200.807L70.2335 198.612L79.4921 216.588Z" fill="#995B80"/>
<path d="M50 199.232L61.8781 201.647L63.6023 198.614V95.7059L61.8781 93.7051L50 100.469V199.232Z" fill="#7B3F65"/>
<path d="M107.76 104.46L61.8813 93.7051V201.647L68.7548 201.008L79.4923 216.589L87.7735 199.241L107.76 197.383V104.46Z" fill="#C17B9D"/>
<path d="M76.5298 204.791L96.8915 208.893L98.2321 205.733V79.25L96.8915 76.3867L76.5298 86.7055V204.791Z" fill="#7B3F65"/>
<path d="M213.074 113.684L96.8916 76.3867V208.896L110.346 207.165L127.246 231.276L140.626 203.268L213.074 193.945V113.684Z" fill="#C17B9D"/>
<path d="M192.057 250.384L162.709 242.162L134.967 210.521L170.931 210.155L192.057 250.384Z" fill="#995B80"/>
<path d="M119.993 213.242L149.938 219.037L152.264 217.032V53.2164L149.938 50L119.993 64.9672V213.242Z" fill="#7B3F65"/>
<path d="M250 100.026L149.941 50V219.037L167.595 215.499L192.057 250.384L213.073 206.393L213.06 206.391L250 198.991V100.026Z" fill="#C17B9D"/>
</svg>
