<svg id="svg" version="1.1" xmlns="http://www.w3.org/2000/svg" xmlns:xlink="http://www.w3.org/1999/xlink" width="400" height="400" viewBox="0, 0, 400,400"><g id="svgg"><path id="path0" d="M183.921 12.612 C 183.806 12.727,182.832 12.861,181.756 12.910 C 180.010 12.990,179.803 13.097,179.832 13.900 C 179.849 14.395,179.698 14.800,179.495 14.800 C 179.292 14.800,179.166 15.655,179.215 16.700 C 179.263 17.745,179.280 19.140,179.251 19.800 L 179.198 21.000 175.609 21.009 C 171.072 21.021,171.021 21.072,171.009 25.609 L 171.000 29.198 169.800 29.251 C 169.140 29.280,167.790 29.267,166.800 29.223 C 164.118 29.103,162.776 29.735,162.829 31.093 C 162.853 31.702,162.740 33.415,162.578 34.900 L 162.284 37.600 160.442 37.639 C 159.429 37.660,157.950 37.648,157.155 37.612 C 154.910 37.511,154.494 38.221,154.437 42.258 C 154.378 46.451,154.836 45.993,150.657 46.038 C 146.203 46.086,146.086 46.203,146.038 50.657 C 145.993 54.836,146.451 54.378,142.258 54.437 C 138.221 54.494,137.511 54.910,137.612 57.155 C 137.648 57.950,137.660 59.429,137.639 60.442 L 137.600 62.284 134.900 62.578 C 133.415 62.740,131.702 62.853,131.093 62.829 C 129.735 62.776,129.103 64.118,129.223 66.800 C 129.267 67.790,129.280 69.146,129.252 69.813 L 129.200 71.026 126.400 70.868 C 124.860 70.781,123.600 70.872,123.600 71.071 C 123.600 71.269,123.105 71.424,122.500 71.416 C 121.559 71.402,121.402 71.559,121.416 72.500 C 121.424 73.105,121.269 73.600,121.071 73.600 C 120.872 73.600,120.781 74.860,120.868 76.400 L 121.026 79.200 119.813 79.252 C 119.146 79.280,117.790 79.267,116.800 79.223 C 114.118 79.103,112.776 79.735,112.829 81.093 C 112.853 81.702,112.740 83.415,112.578 84.900 L 112.284 87.600 110.916 87.600 C 110.163 87.600,109.178 87.798,108.725 88.040 C 108.128 88.360,107.978 88.360,108.175 88.040 C 108.618 87.324,105.742 87.515,105.007 88.251 C 104.649 88.608,104.386 89.283,104.422 89.751 C 104.459 90.218,104.469 91.815,104.444 93.300 L 104.400 96.000 102.200 96.000 C 100.988 96.000,100.000 96.181,100.000 96.403 C 100.000 96.653,99.719 96.631,99.260 96.345 C 97.408 95.188,95.188 97.408,96.345 99.260 C 96.631 99.719,96.653 100.000,96.403 100.000 C 96.181 100.000,96.000 100.988,96.000 102.200 L 96.000 104.400 93.300 104.444 C 91.815 104.469,90.218 104.459,89.751 104.422 C 89.283 104.386,88.608 104.649,88.251 105.007 C 87.515 105.742,87.324 108.618,88.040 108.175 C 88.360 107.978,88.360 108.128,88.040 108.725 C 87.798 109.178,87.600 110.163,87.600 110.916 L 87.600 112.284 84.900 112.578 C 83.415 112.740,81.702 112.853,81.093 112.829 C 79.735 112.776,79.103 114.118,79.223 116.800 C 79.267 117.790,79.280 119.146,79.252 119.813 L 79.200 121.026 76.400 120.868 C 74.860 120.781,73.600 120.872,73.600 121.071 C 73.600 121.269,73.105 121.424,72.500 121.416 C 71.559 121.402,71.402 121.559,71.416 122.500 C 71.424 123.105,71.269 123.600,71.071 123.600 C 70.872 123.600,70.781 124.860,70.868 126.400 L 71.026 129.200 69.813 129.252 C 69.146 129.280,67.790 129.267,66.800 129.223 C 64.118 129.103,62.776 129.735,62.829 131.093 C 62.853 131.702,62.740 133.415,62.578 134.900 L 62.284 137.600 60.916 137.600 C 60.163 137.600,59.178 137.798,58.725 138.040 C 58.128 138.360,57.978 138.360,58.175 138.040 C 58.618 137.324,55.742 137.515,55.007 138.251 C 54.649 138.608,54.386 139.283,54.422 139.751 C 54.459 140.218,54.469 141.815,54.444 143.300 L 54.400 146.000 52.200 146.000 C 50.988 146.000,50.000 146.181,50.000 146.403 C 50.000 146.653,49.719 146.631,49.260 146.345 C 47.408 145.188,45.188 147.408,46.345 149.260 C 46.631 149.719,46.653 150.000,46.403 150.000 C 46.181 150.000,46.000 150.988,46.000 152.200 L 46.000 154.400 43.300 154.444 C 41.815 154.469,40.218 154.459,39.751 154.422 C 39.283 154.386,38.608 154.649,38.251 155.007 C 37.515 155.742,37.324 158.618,38.040 158.175 C 38.360 157.978,38.360 158.128,38.040 158.725 C 37.798 159.178,37.600 160.163,37.600 160.916 L 37.600 162.284 34.900 162.569 C 33.415 162.726,31.660 162.887,31.000 162.927 C 30.033 162.986,29.806 163.175,29.832 163.900 C 29.849 164.395,29.698 164.800,29.495 164.800 C 29.292 164.800,29.166 165.655,29.215 166.700 C 29.263 167.745,29.280 169.155,29.252 169.833 L 29.200 171.066 27.014 170.885 C 25.812 170.785,24.507 170.839,24.114 171.006 C 23.721 171.172,22.950 171.329,22.400 171.354 C 21.626 171.390,21.390 171.626,21.354 172.400 C 21.329 172.950,21.172 173.721,21.006 174.114 C 20.839 174.507,20.785 175.812,20.885 177.014 C 21.090 179.493,21.196 179.434,16.900 179.224 C 15.745 179.168,14.800 179.289,14.800 179.493 C 14.800 179.697,14.395 179.849,13.900 179.832 C 12.774 179.792,12.827 179.184,12.559 195.137 C 12.424 203.134,12.494 208.095,12.753 208.837 C 13.002 209.551,13.012 210.000,12.779 210.000 C 12.354 210.000,12.277 213.803,12.655 216.092 C 12.791 216.913,13.044 217.496,13.217 217.389 C 13.391 217.282,13.329 217.733,13.081 218.392 C 12.430 220.115,13.095 220.580,16.316 220.653 C 21.616 220.774,21.090 220.505,20.885 222.986 C 20.785 224.188,20.842 225.493,21.011 225.886 C 21.180 226.279,21.279 227.005,21.231 227.499 C 21.112 228.710,22.305 229.117,25.917 229.096 C 29.451 229.076,29.332 228.959,29.269 232.394 C 29.240 233.937,29.376 235.200,29.571 235.200 C 29.766 235.200,29.832 235.557,29.718 235.993 C 29.435 237.073,30.660 237.484,34.375 237.558 C 37.944 237.629,37.601 237.326,37.637 240.437 C 37.696 245.559,37.974 245.857,42.779 245.956 C 46.375 246.030,46.011 245.629,46.062 249.566 C 46.110 253.293,46.567 254.100,48.554 253.967 C 49.239 253.921,50.835 253.910,52.100 253.942 L 54.400 254.000 54.400 256.624 C 54.400 258.616,54.520 259.175,54.900 258.947 C 55.245 258.740,55.231 258.855,54.855 259.318 C 53.621 260.840,55.542 262.828,57.815 262.381 C 58.027 262.339,59.119 262.327,60.242 262.353 L 62.284 262.400 62.578 265.100 C 62.740 266.585,62.853 268.298,62.829 268.907 C 62.778 270.231,63.794 270.741,66.439 270.719 C 67.407 270.710,68.845 270.725,69.633 270.752 L 71.066 270.800 70.885 272.986 C 70.785 274.188,70.842 275.493,71.011 275.886 C 71.180 276.279,71.279 277.005,71.231 277.499 C 71.112 278.710,72.305 279.117,75.917 279.096 C 79.451 279.076,79.332 278.959,79.269 282.394 C 79.240 283.937,79.376 285.200,79.571 285.200 C 79.766 285.200,79.832 285.557,79.718 285.993 C 79.435 287.073,80.660 287.484,84.375 287.558 C 87.944 287.629,87.601 287.326,87.637 290.437 C 87.696 295.559,87.974 295.857,92.779 295.956 C 96.375 296.030,96.011 295.629,96.062 299.566 C 96.110 303.293,96.567 304.100,98.554 303.967 C 99.239 303.921,100.835 303.910,102.100 303.942 L 104.400 304.000 104.400 306.624 C 104.400 308.616,104.520 309.175,104.900 308.947 C 105.245 308.740,105.231 308.855,104.855 309.318 C 103.621 310.840,105.542 312.828,107.815 312.381 C 108.027 312.339,109.119 312.327,110.242 312.353 L 112.284 312.400 112.578 315.100 C 112.740 316.585,112.853 318.298,112.829 318.907 C 112.778 320.231,113.794 320.741,116.439 320.719 C 117.407 320.710,118.845 320.725,119.633 320.752 L 121.066 320.800 120.885 322.986 C 120.785 324.188,120.842 325.493,121.011 325.886 C 121.180 326.279,121.279 327.005,121.231 327.499 C 121.112 328.717,122.307 329.117,126.002 329.096 C 129.450 329.076,129.638 329.305,129.284 333.100 C 129.161 334.420,129.244 335.200,129.507 335.200 C 129.737 335.200,129.832 335.557,129.718 335.993 C 129.435 337.073,130.660 337.484,134.375 337.558 C 137.944 337.629,137.601 337.326,137.637 340.437 C 137.680 344.190,137.911 345.031,139.038 345.545 C 140.626 346.268,141.542 346.157,140.576 345.358 C 139.864 344.768,139.889 344.768,140.886 345.358 C 141.496 345.719,142.854 346.000,143.986 346.000 L 146.000 346.000 146.000 347.826 C 146.000 348.831,146.198 350.022,146.440 350.475 C 146.760 351.072,146.760 351.222,146.440 351.025 C 145.731 350.587,145.918 352.661,146.654 353.397 C 147.030 353.773,147.837 354.015,148.554 353.967 C 149.239 353.921,150.835 353.910,152.100 353.942 L 154.400 354.000 154.400 356.400 C 154.400 357.908,154.567 358.800,154.849 358.800 C 155.161 358.800,155.147 358.982,154.804 359.395 C 153.609 360.835,155.605 362.816,157.815 362.381 C 160.198 361.912,162.400 362.449,162.404 363.500 C 162.412 365.341,162.883 367.596,163.217 367.389 C 163.391 367.282,163.329 367.733,163.081 368.392 C 162.307 370.443,162.692 370.578,169.833 370.767 L 171.066 370.800 170.885 372.986 C 170.785 374.188,170.842 375.493,171.011 375.886 C 171.180 376.279,171.279 377.005,171.231 377.499 C 171.112 378.715,172.306 379.117,175.985 379.096 C 179.477 379.076,179.652 379.281,179.299 382.963 C 179.129 384.742,179.191 385.253,179.552 385.029 C 179.895 384.818,179.963 385.006,179.792 385.691 C 179.343 387.480,180.236 387.567,199.235 387.592 C 212.932 387.609,217.042 387.500,217.527 387.107 C 218.039 386.693,218.095 386.698,217.832 387.134 C 217.594 387.529,217.755 387.633,218.456 387.534 C 218.975 387.460,219.400 387.190,219.400 386.933 C 219.400 386.677,219.564 386.317,219.764 386.133 C 219.976 385.940,220.008 386.010,219.841 386.300 C 219.682 386.575,219.731 386.800,219.949 386.800 C 220.558 386.800,220.759 385.670,220.712 382.499 C 220.659 378.965,220.367 379.235,224.322 379.163 C 226.915 379.116,227.600 378.980,227.600 378.514 C 227.600 378.190,227.938 377.837,228.352 377.728 C 229.004 377.558,229.112 377.099,229.163 374.288 C 229.235 370.371,228.864 370.737,232.766 370.724 C 235.354 370.715,236.000 370.594,236.000 370.119 C 236.000 369.792,236.360 369.431,236.800 369.316 C 237.240 369.201,237.600 368.928,237.600 368.711 C 237.600 368.493,237.295 368.431,236.922 368.574 C 236.286 368.819,236.286 368.789,236.922 368.086 C 237.405 367.552,237.600 366.627,237.600 364.869 L 237.600 362.400 239.500 362.354 C 240.545 362.328,242.075 362.321,242.900 362.338 C 244.003 362.361,244.400 362.204,244.400 361.747 C 244.400 361.405,244.760 361.031,245.200 360.916 C 245.640 360.801,246.000 360.528,246.000 360.311 C 246.000 360.093,245.739 360.014,245.420 360.137 C 245.033 360.285,244.915 360.167,245.063 359.780 C 245.186 359.461,245.446 359.200,245.643 359.200 C 245.839 359.200,246.000 358.030,246.000 356.600 L 246.000 354.000 248.700 353.954 C 250.185 353.929,251.715 353.940,252.100 353.979 C 252.498 354.020,252.800 353.781,252.800 353.425 C 252.800 353.081,253.081 352.800,253.425 352.800 C 253.781 352.800,254.020 352.498,253.979 352.100 C 253.940 351.715,253.929 350.185,253.954 348.700 L 254.000 346.000 256.600 346.000 C 258.030 346.000,259.200 345.839,259.200 345.643 C 259.200 345.446,259.461 345.186,259.780 345.063 C 260.167 344.915,260.285 345.033,260.137 345.420 C 260.014 345.739,260.114 346.000,260.357 346.000 C 260.601 346.000,260.800 345.713,260.800 345.363 C 260.800 345.012,261.152 344.633,261.582 344.521 C 262.186 344.363,262.358 343.982,262.336 342.858 C 262.320 342.056,262.328 340.545,262.354 339.500 L 262.400 337.600 264.869 337.600 C 266.627 337.600,267.552 337.405,268.086 336.922 C 268.789 336.286,268.819 336.286,268.574 336.922 C 268.427 337.308,268.505 337.600,268.757 337.600 C 269.001 337.600,269.200 337.313,269.200 336.963 C 269.200 336.612,269.538 336.237,269.952 336.128 C 270.604 335.958,270.712 335.499,270.763 332.688 C 270.834 328.791,270.386 329.234,274.322 329.163 C 276.915 329.116,277.600 328.980,277.600 328.514 C 277.600 328.190,277.938 327.837,278.352 327.728 C 279.004 327.558,279.112 327.099,279.163 324.288 C 279.234 320.391,278.786 320.834,282.722 320.763 C 285.315 320.716,286.000 320.580,286.000 320.114 C 286.000 319.790,286.360 319.431,286.800 319.316 C 287.240 319.201,287.600 318.928,287.600 318.711 C 287.600 318.493,287.295 318.431,286.922 318.574 C 286.286 318.819,286.286 318.789,286.922 318.086 C 287.405 317.552,287.600 316.627,287.600 314.869 L 287.600 312.400 289.500 312.354 C 290.545 312.328,292.075 312.321,292.900 312.338 C 294.003 312.361,294.400 312.204,294.400 311.747 C 294.400 311.405,294.760 311.031,295.200 310.916 C 295.640 310.801,296.000 310.528,296.000 310.311 C 296.000 310.093,295.739 310.014,295.420 310.137 C 295.033 310.285,294.915 310.167,295.063 309.780 C 295.186 309.461,295.446 309.200,295.643 309.200 C 295.839 309.200,296.000 308.030,296.000 306.600 L 296.000 304.000 298.700 303.953 C 300.185 303.927,301.619 303.933,301.886 303.967 C 302.516 304.047,304.047 302.516,303.967 301.886 C 303.933 301.619,303.927 300.185,303.953 298.700 L 304.000 296.000 306.600 296.000 C 308.030 296.000,309.200 295.839,309.200 295.643 C 309.200 295.446,309.461 295.186,309.780 295.063 C 310.167 294.915,310.285 295.033,310.137 295.420 C 310.014 295.739,310.093 296.000,310.311 296.000 C 310.528 296.000,310.801 295.640,310.916 295.200 C 311.031 294.760,311.405 294.400,311.747 294.400 C 312.204 294.400,312.361 294.003,312.338 292.900 C 312.321 292.075,312.328 290.545,312.354 289.500 L 312.400 287.600 314.869 287.600 C 316.627 287.600,317.552 287.405,318.086 286.922 C 318.789 286.286,318.819 286.286,318.574 286.922 C 318.431 287.295,318.493 287.600,318.711 287.600 C 318.928 287.600,319.201 287.240,319.316 286.800 C 319.431 286.360,319.790 286.000,320.114 286.000 C 320.580 286.000,320.716 285.315,320.763 282.722 C 320.834 278.786,320.391 279.234,324.288 279.163 C 327.099 279.112,327.558 279.004,327.728 278.352 C 327.837 277.938,328.190 277.600,328.514 277.600 C 328.980 277.600,329.116 276.915,329.163 274.322 C 329.234 270.386,328.791 270.834,332.688 270.763 C 335.499 270.712,335.958 270.604,336.128 269.952 C 336.237 269.538,336.612 269.200,336.963 269.200 C 337.313 269.200,337.600 269.001,337.600 268.757 C 337.600 268.505,337.308 268.427,336.922 268.574 C 336.286 268.819,336.286 268.789,336.922 268.086 C 337.405 267.552,337.600 266.627,337.600 264.869 L 337.600 262.400 339.500 262.354 C 340.545 262.328,342.056 262.320,342.858 262.336 C 343.982 262.358,344.363 262.186,344.521 261.582 C 344.633 261.152,345.012 260.800,345.363 260.800 C 345.713 260.800,346.000 260.601,346.000 260.357 C 346.000 260.114,345.739 260.014,345.420 260.137 C 345.033 260.285,344.915 260.167,345.063 259.780 C 345.186 259.461,345.446 259.200,345.643 259.200 C 345.839 259.200,346.000 258.030,346.000 256.600 L 346.000 254.000 348.700 253.953 C 350.185 253.927,351.619 253.933,351.886 253.967 C 352.516 254.047,354.047 252.516,353.967 251.886 C 353.933 251.619,353.927 250.185,353.953 248.700 L 354.000 246.000 356.567 246.000 C 358.229 246.000,359.216 245.824,359.367 245.500 C 359.553 245.100,359.647 245.100,359.833 245.500 C 360.166 246.213,360.800 246.119,360.800 245.357 C 360.800 244.941,361.018 244.798,361.421 244.953 C 361.777 245.089,361.937 245.022,361.797 244.795 C 361.663 244.578,361.736 244.400,361.961 244.400 C 362.185 244.400,362.355 243.725,362.338 242.900 C 362.321 242.075,362.328 240.545,362.354 239.500 L 362.400 237.600 364.920 237.600 C 366.347 237.600,367.648 237.392,367.920 237.120 C 368.293 236.747,368.400 236.747,368.400 237.120 C 368.400 237.384,368.580 237.600,368.800 237.600 C 369.020 237.600,369.203 237.285,369.206 236.900 C 369.211 236.302,369.269 236.287,369.600 236.800 C 369.949 237.340,370.172 237.090,370.047 236.300 C 370.021 236.135,370.158 236.000,370.352 236.000 C 370.545 236.000,370.730 234.525,370.763 232.722 C 370.834 228.786,370.391 229.234,374.288 229.163 C 377.099 229.112,377.558 229.004,377.728 228.352 C 377.837 227.938,378.190 227.600,378.514 227.600 C 378.980 227.600,379.116 226.915,379.163 224.322 C 379.234 220.378,378.912 220.728,382.469 220.737 C 385.707 220.745,386.800 220.546,386.800 219.949 C 386.800 219.731,386.575 219.682,386.300 219.841 C 386.010 220.008,385.940 219.976,386.133 219.764 C 386.317 219.564,386.677 219.400,386.933 219.400 C 387.190 219.400,387.460 218.975,387.534 218.456 C 387.633 217.755,387.529 217.594,387.134 217.832 C 386.698 218.095,386.693 218.039,387.107 217.527 C 387.500 217.042,387.609 212.932,387.592 199.235 C 387.568 180.809,387.442 179.339,385.924 179.736 C 385.526 179.840,385.200 179.763,385.200 179.566 C 385.200 179.368,383.949 179.244,382.420 179.290 C 379.021 179.392,379.116 179.487,379.116 176.001 C 379.116 173.529,378.989 173.025,378.158 172.194 C 377.631 171.667,377.200 171.340,377.200 171.467 C 377.200 171.594,376.926 171.470,376.590 171.192 C 376.164 170.838,375.203 170.759,373.390 170.928 L 370.800 171.170 370.754 168.485 C 370.729 167.008,370.740 165.485,370.779 165.100 C 370.818 164.715,370.665 164.400,370.438 164.400 C 370.211 164.400,370.128 164.132,370.254 163.803 C 370.570 162.979,369.280 162.557,368.305 163.166 C 367.871 163.437,367.622 163.488,367.752 163.278 C 368.027 162.832,366.157 162.400,363.950 162.400 L 362.400 162.400 362.341 160.100 C 362.281 157.797,362.210 156.948,362.013 156.200 C 361.955 155.980,361.883 155.530,361.854 155.200 C 361.811 154.722,361.031 154.576,358.015 154.482 C 353.503 154.341,354.061 154.810,353.942 151.062 C 353.887 149.350,353.706 147.865,353.539 147.762 C 353.372 147.659,353.337 147.308,353.462 146.983 C 353.629 146.547,353.502 146.463,352.979 146.663 C 352.470 146.859,352.357 146.794,352.580 146.433 C 352.805 146.069,352.575 145.952,351.745 146.008 C 351.115 146.050,349.565 146.066,348.300 146.042 L 346.000 146.000 346.000 143.624 C 346.000 142.317,345.820 141.136,345.600 141.000 C 345.380 140.864,345.203 140.538,345.206 140.276 C 345.210 139.990,345.367 140.039,345.600 140.400 C 345.910 140.880,345.989 140.889,345.994 140.444 C 345.997 140.138,345.685 139.630,345.300 139.314 C 344.915 138.999,344.848 138.869,345.152 139.026 C 345.520 139.216,345.639 139.126,345.510 138.756 C 345.404 138.450,345.003 138.257,344.618 138.327 C 344.234 138.396,344.027 138.280,344.158 138.069 C 344.302 137.835,343.122 137.675,341.152 137.663 C 337.261 137.637,337.649 137.982,337.560 134.465 C 337.453 130.242,336.458 129.232,332.441 129.270 C 328.939 129.303,329.116 129.476,329.116 126.001 C 329.116 123.529,328.989 123.025,328.158 122.194 C 327.631 121.667,327.200 121.340,327.200 121.467 C 327.200 121.594,326.926 121.470,326.590 121.192 C 326.164 120.838,325.203 120.759,323.390 120.928 L 320.800 121.170 320.754 118.485 C 320.729 117.008,320.740 115.485,320.779 115.100 C 320.818 114.715,320.665 114.400,320.438 114.400 C 320.211 114.400,320.128 114.132,320.254 113.803 C 320.570 112.979,319.280 112.557,318.305 113.166 C 317.871 113.437,317.622 113.488,317.752 113.278 C 318.027 112.832,316.157 112.400,313.950 112.400 L 312.400 112.400 312.341 110.100 C 312.281 107.797,312.210 106.948,312.013 106.200 C 311.955 105.980,311.883 105.530,311.854 105.200 C 311.811 104.722,311.031 104.576,308.015 104.482 C 303.503 104.341,304.061 104.810,303.942 101.062 C 303.887 99.350,303.706 97.865,303.539 97.762 C 303.372 97.659,303.337 97.308,303.462 96.983 C 303.629 96.547,303.502 96.463,302.979 96.663 C 302.470 96.859,302.357 96.794,302.580 96.433 C 302.805 96.069,302.575 95.952,301.745 96.008 C 301.115 96.050,299.565 96.066,298.300 96.042 L 296.000 96.000 296.000 93.624 C 296.000 92.317,295.820 91.136,295.600 91.000 C 295.380 90.864,295.203 90.538,295.206 90.276 C 295.210 89.990,295.367 90.039,295.600 90.400 C 295.910 90.880,295.989 90.889,295.994 90.444 C 295.997 90.138,295.685 89.630,295.300 89.314 C 294.915 88.999,294.848 88.869,295.152 89.026 C 295.520 89.216,295.639 89.126,295.510 88.756 C 295.404 88.450,295.003 88.257,294.618 88.327 C 294.234 88.396,294.027 88.280,294.158 88.069 C 294.302 87.835,293.122 87.675,291.152 87.663 C 287.261 87.637,287.649 87.982,287.560 84.465 C 287.453 80.242,286.458 79.232,282.441 79.270 C 278.949 79.303,279.232 79.596,279.160 75.877 C 279.128 74.185,278.949 72.800,278.763 72.800 C 278.577 72.800,278.522 72.548,278.640 72.240 C 278.758 71.933,278.662 71.562,278.427 71.417 C 278.192 71.272,277.997 71.388,277.994 71.676 C 277.989 72.100,277.923 72.098,277.649 71.666 C 277.463 71.372,277.198 71.142,277.059 71.155 C 276.921 71.168,276.524 71.069,276.177 70.936 C 275.830 70.803,274.571 70.794,273.378 70.917 C 270.773 71.186,270.834 71.267,270.760 67.454 C 270.728 65.774,270.549 64.400,270.363 64.400 C 270.177 64.400,270.128 64.132,270.254 63.803 C 270.570 62.979,269.280 62.557,268.305 63.166 C 267.871 63.437,267.622 63.488,267.752 63.278 C 268.027 62.832,266.157 62.400,263.950 62.400 L 262.400 62.400 262.341 60.100 C 262.281 57.797,262.210 56.948,262.013 56.200 C 261.955 55.980,261.883 55.530,261.854 55.200 C 261.811 54.722,261.031 54.576,258.015 54.482 C 253.503 54.341,254.061 54.810,253.942 51.062 C 253.887 49.350,253.706 47.865,253.539 47.762 C 253.372 47.659,253.337 47.308,253.462 46.983 C 253.629 46.547,253.502 46.463,252.979 46.663 C 252.521 46.839,252.363 46.783,252.535 46.506 C 252.716 46.213,251.757 46.064,249.536 46.040 C 245.624 45.998,246.049 46.385,245.958 42.784 C 245.903 40.605,245.710 39.660,245.241 39.272 C 244.889 38.980,244.848 38.869,245.152 39.026 C 245.520 39.216,245.639 39.126,245.510 38.756 C 245.404 38.450,245.003 38.257,244.618 38.327 C 244.234 38.396,244.027 38.280,244.158 38.069 C 244.302 37.835,243.122 37.675,241.152 37.663 C 237.250 37.637,237.633 37.998,237.560 34.277 C 237.528 32.585,237.349 31.200,237.163 31.200 C 236.977 31.200,236.922 30.948,237.040 30.640 C 237.158 30.333,237.062 29.962,236.827 29.817 C 236.592 29.672,236.395 29.788,236.388 30.076 C 236.380 30.407,236.229 30.348,235.977 29.916 C 235.653 29.360,235.011 29.238,232.573 29.266 C 228.935 29.309,229.233 29.604,229.160 25.877 C 229.128 24.185,228.949 22.800,228.763 22.800 C 228.577 22.800,228.522 22.548,228.640 22.240 C 228.758 21.933,228.662 21.562,228.427 21.417 C 228.192 21.272,227.997 21.388,227.994 21.676 C 227.989 22.100,227.923 22.098,227.649 21.666 C 227.463 21.372,227.198 21.142,227.059 21.155 C 226.921 21.168,226.524 21.069,226.177 20.936 C 225.830 20.803,224.558 20.796,223.350 20.920 C 220.753 21.188,220.814 21.278,220.661 16.959 C 220.529 13.260,220.334 12.802,218.874 12.762 C 211.899 12.574,184.079 12.454,183.921 12.612 M140.800 181.226 C 142.230 181.456,143.460 181.815,143.533 182.023 C 143.607 182.230,143.877 182.400,144.133 182.401 C 144.390 182.401,145.230 182.941,146.000 183.600 C 146.770 184.259,147.613 184.799,147.873 184.799 C 148.133 184.800,148.455 185.143,148.588 185.563 C 148.721 185.983,149.094 186.427,149.415 186.550 C 149.737 186.674,150.000 187.011,150.000 187.299 C 150.000 187.587,150.355 188.126,150.789 188.498 C 151.223 188.869,151.701 189.674,151.851 190.287 C 152.001 190.899,152.320 191.528,152.562 191.685 C 153.181 192.088,153.170 208.720,152.550 209.114 C 152.303 209.271,151.971 209.997,151.813 210.727 C 151.654 211.457,151.288 212.145,150.998 212.256 C 150.709 212.367,150.370 212.864,150.246 213.359 C 149.937 214.589,148.014 216.532,146.471 217.171 C 145.772 217.460,145.200 217.841,145.200 218.018 C 145.200 219.004,141.881 219.400,133.600 219.400 C 125.319 219.400,122.000 219.004,122.000 218.018 C 122.000 217.841,121.428 217.460,120.729 217.171 C 119.556 216.685,118.451 215.714,116.723 213.652 C 116.350 213.207,115.819 212.069,115.542 211.122 C 115.265 210.175,114.850 209.271,114.619 209.114 C 114.027 208.711,114.045 192.071,114.638 191.685 C 114.880 191.528,115.199 190.899,115.349 190.287 C 115.499 189.674,115.977 188.869,116.411 188.498 C 116.845 188.126,117.200 187.625,117.200 187.383 C 117.200 186.806,119.356 184.400,119.873 184.400 C 120.095 184.400,120.799 183.950,121.438 183.400 C 122.077 182.851,122.810 182.401,123.067 182.400 C 123.323 182.400,123.593 182.225,123.667 182.010 C 124.025 180.961,135.815 180.421,140.800 181.226 M207.400 181.219 C 208.940 181.441,210.260 181.798,210.333 182.011 C 210.407 182.225,210.711 182.400,211.011 182.400 C 211.310 182.400,211.790 182.728,212.077 183.129 C 212.365 183.530,213.174 184.109,213.875 184.416 C 214.577 184.722,215.338 185.384,215.567 185.887 C 215.796 186.389,216.167 186.800,216.391 186.800 C 216.616 186.800,216.800 187.036,216.800 187.325 C 216.800 187.613,217.189 188.267,217.665 188.777 C 220.206 191.505,220.321 210.693,217.804 212.102 C 217.472 212.288,217.200 212.706,217.200 213.030 C 217.200 213.816,213.790 217.200,212.998 217.200 C 212.655 217.200,212.276 217.459,212.154 217.776 C 211.741 218.852,206.842 219.600,200.200 219.600 C 193.558 219.600,188.659 218.852,188.246 217.776 C 188.124 217.459,187.765 217.200,187.447 217.200 C 186.523 217.200,183.874 214.349,182.801 212.200 C 182.471 211.540,182.089 210.910,181.952 210.800 C 180.875 209.938,180.386 197.990,181.217 192.868 C 181.614 190.419,181.794 190.030,183.300 188.371 C 183.685 187.947,184.000 187.414,184.000 187.187 C 184.000 186.959,184.624 186.149,185.387 185.387 C 186.149 184.624,186.959 184.000,187.187 184.000 C 187.414 184.000,187.947 183.685,188.371 183.300 C 190.074 181.754,190.484 181.559,192.698 181.235 C 195.982 180.754,204.110 180.745,207.400 181.219 M274.332 181.217 C 276.781 181.614,277.170 181.794,278.829 183.300 C 279.253 183.685,279.786 184.000,280.013 184.000 C 280.551 184.000,283.200 186.649,283.200 187.187 C 283.200 187.414,283.515 187.947,283.900 188.371 C 285.406 190.030,285.586 190.419,285.983 192.868 C 286.790 197.841,286.265 210.800,285.257 210.800 C 285.113 210.800,284.736 211.385,284.420 212.100 C 283.757 213.599,283.485 213.966,281.666 215.832 C 280.932 216.584,280.071 217.200,279.753 217.200 C 279.435 217.200,279.076 217.459,278.954 217.776 C 278.021 220.208,255.979 220.208,255.046 217.776 C 254.924 217.459,254.545 217.200,254.202 217.200 C 253.410 217.200,250.000 213.816,250.000 213.030 C 250.000 212.706,249.720 212.283,249.378 212.092 C 249.021 211.892,248.556 210.691,248.287 209.272 C 248.028 207.912,247.678 206.800,247.508 206.800 C 247.339 206.800,247.200 204.010,247.200 200.600 C 247.200 196.733,247.351 194.400,247.600 194.400 C 247.820 194.400,248.000 193.904,248.000 193.297 C 248.000 191.607,248.645 189.733,249.567 188.744 C 250.025 188.252,250.400 187.613,250.400 187.325 C 250.400 187.036,250.550 186.800,250.732 186.800 C 250.915 186.800,251.299 186.362,251.586 185.826 C 251.872 185.291,252.668 184.625,253.353 184.346 C 254.039 184.068,254.835 183.516,255.123 183.120 C 255.410 182.724,255.890 182.400,256.189 182.400 C 256.489 182.400,256.794 182.219,256.867 181.998 C 257.208 180.977,269.474 180.429,274.332 181.217 " stroke="none" fill="#fcd404" fill-rule="evenodd"></path><path id="path1" d="M129.200 185.102 C 129.200 185.269,128.615 185.662,127.900 185.975 C 126.477 186.600,124.893 188.124,124.078 189.652 C 123.791 190.190,122.846 190.938,121.978 191.314 C 121.110 191.690,120.400 192.268,120.400 192.599 C 120.400 192.929,120.233 193.200,120.029 193.200 C 118.437 193.200,117.632 203.755,119.020 206.439 C 119.745 207.841,120.853 209.200,121.271 209.200 C 121.657 209.200,123.600 211.150,123.600 211.538 C 123.600 213.922,128.256 216.000,133.600 216.000 C 139.085 216.000,143.600 213.917,143.600 211.387 C 143.600 211.139,144.095 210.680,144.700 210.368 C 145.968 209.713,147.167 208.427,147.187 207.700 C 147.194 207.425,147.389 207.200,147.621 207.200 C 147.852 207.200,148.230 206.660,148.460 206.000 C 148.690 205.340,149.041 204.800,149.239 204.800 C 149.438 204.800,149.600 204.170,149.600 203.400 C 149.600 202.630,149.420 202.000,149.200 202.000 C 148.966 202.000,148.800 200.658,148.800 198.774 C 148.800 195.582,148.392 194.100,147.342 193.480 C 147.044 193.304,146.800 192.899,146.800 192.579 C 146.800 192.259,146.090 191.690,145.222 191.314 C 144.354 190.938,143.409 190.190,143.122 189.652 C 142.307 188.124,140.723 186.600,139.300 185.975 C 138.585 185.662,138.000 185.269,138.000 185.102 C 138.000 184.936,136.020 184.800,133.600 184.800 C 131.180 184.800,129.200 184.936,129.200 185.102 M196.000 185.102 C 196.000 185.269,195.415 185.661,194.700 185.973 C 193.240 186.612,191.200 188.382,191.200 189.010 C 191.200 189.567,189.830 190.703,188.251 191.456 C 187.418 191.853,186.716 192.631,186.280 193.637 C 185.907 194.496,185.422 195.200,185.201 195.200 C 184.954 195.200,184.800 197.190,184.800 200.400 C 184.800 203.260,184.935 205.602,185.100 205.605 C 185.265 205.607,185.742 206.324,186.161 207.197 C 186.579 208.070,187.209 208.879,187.561 208.996 C 187.912 209.112,188.830 209.935,189.600 210.826 C 192.299 213.949,193.409 215.004,194.519 215.500 C 195.879 216.108,204.276 216.179,205.811 215.596 C 206.936 215.168,210.382 212.047,210.393 211.446 C 210.402 210.985,212.126 209.391,212.962 209.070 C 213.320 208.933,213.785 208.366,213.996 207.810 C 214.207 207.255,214.525 206.800,214.702 206.800 C 216.311 206.800,216.171 195.989,214.539 194.090 C 214.023 193.491,213.601 192.783,213.600 192.519 C 213.600 192.254,212.931 191.720,212.113 191.332 C 210.598 190.613,209.200 189.444,209.200 188.896 C 209.200 188.290,207.264 186.524,206.047 186.019 C 205.361 185.735,204.800 185.345,204.800 185.151 C 204.800 184.958,202.820 184.800,200.400 184.800 C 197.980 184.800,196.000 184.936,196.000 185.102 M262.400 185.151 C 262.400 185.345,261.839 185.735,261.153 186.019 C 259.936 186.524,258.000 188.290,258.000 188.896 C 258.000 189.438,256.552 190.666,255.235 191.240 C 254.457 191.579,253.691 192.352,253.292 193.200 C 252.930 193.970,252.386 194.788,252.084 195.018 C 251.329 195.594,251.537 206.447,252.308 206.703 C 252.588 206.796,253.088 207.396,253.419 208.036 C 253.750 208.676,254.241 209.212,254.510 209.226 C 254.780 209.240,255.403 209.735,255.896 210.326 C 258.418 213.349,260.327 215.192,261.333 215.575 C 262.911 216.174,271.295 216.119,272.681 215.500 C 273.878 214.965,277.200 211.855,277.200 211.269 C 277.200 210.868,279.594 208.800,280.058 208.800 C 280.226 208.800,280.679 208.125,281.066 207.300 C 281.453 206.475,281.995 205.569,282.269 205.287 C 282.930 204.608,282.500 195.643,281.771 194.914 C 281.498 194.641,281.041 193.889,280.755 193.244 C 280.469 192.598,279.655 191.793,278.945 191.454 C 277.370 190.703,276.000 189.566,276.000 189.010 C 276.000 188.382,273.960 186.612,272.500 185.973 C 271.785 185.661,271.200 185.269,271.200 185.102 C 271.200 184.936,269.220 184.800,266.800 184.800 C 264.380 184.800,262.400 184.958,262.400 185.151 M138.000 192.338 C 138.000 192.956,139.787 194.707,140.700 194.982 C 141.195 195.132,141.600 195.409,141.600 195.599 C 141.600 195.789,142.005 196.002,142.500 196.072 C 143.078 196.154,143.446 196.522,143.528 197.100 C 143.598 197.595,143.816 198.000,144.012 198.000 C 144.209 198.000,144.575 198.765,144.826 199.700 C 145.077 200.635,145.451 201.505,145.656 201.632 C 147.166 202.574,146.450 204.605,144.441 205.079 C 143.325 205.343,142.015 205.928,141.530 206.379 C 141.046 206.831,140.523 207.200,140.369 207.200 C 140.214 207.200,139.849 208.010,139.557 209.000 C 139.265 209.990,138.885 210.800,138.713 210.800 C 138.541 210.800,138.400 211.340,138.400 212.000 L 138.400 213.200 133.600 213.200 L 128.800 213.200 128.800 212.000 C 128.800 211.340,128.664 210.800,128.497 210.800 C 128.331 210.800,127.973 210.091,127.703 209.224 C 126.924 206.727,124.518 204.800,122.181 204.800 C 121.642 204.800,121.200 204.620,121.200 204.400 C 121.200 204.180,121.367 204.000,121.571 204.000 C 121.776 204.000,122.164 203.010,122.435 201.800 C 122.706 200.590,123.057 199.600,123.216 199.600 C 123.375 199.600,123.709 198.790,123.958 197.800 C 124.305 196.423,124.598 196.000,125.206 196.000 C 125.643 196.000,126.000 195.820,126.000 195.600 C 126.000 195.380,126.226 195.200,126.501 195.200 C 127.103 195.200,129.200 193.053,129.200 192.436 C 129.200 192.148,130.692 192.000,133.600 192.000 C 136.020 192.000,138.000 192.152,138.000 192.338 M205.196 193.190 C 205.515 193.961,206.167 194.553,207.044 194.871 C 207.790 195.140,208.400 195.492,208.400 195.653 C 208.400 195.813,208.794 196.002,209.276 196.072 C 209.882 196.161,210.256 196.601,210.488 197.500 C 210.672 198.215,210.981 198.800,211.174 198.800 C 211.368 198.800,211.757 199.700,212.039 200.800 C 212.321 201.900,212.697 202.800,212.876 202.800 C 213.054 202.800,213.200 203.250,213.200 203.800 C 213.200 204.595,212.999 204.800,212.219 204.800 C 211.113 204.800,209.266 205.537,208.471 206.295 C 208.181 206.573,207.766 206.800,207.551 206.800 C 207.335 206.800,206.970 207.340,206.740 208.000 C 206.510 208.660,206.166 209.200,205.975 209.200 C 205.784 209.200,205.508 210.100,205.362 211.200 L 205.097 213.200 200.200 213.200 L 195.303 213.200 195.040 211.217 C 194.895 210.126,194.512 208.969,194.188 208.646 C 193.865 208.322,193.600 207.890,193.600 207.687 C 193.600 206.934,190.975 205.174,189.501 204.938 C 188.037 204.704,187.668 203.584,188.796 202.800 C 188.954 202.690,189.308 201.655,189.582 200.500 C 189.856 199.345,190.219 198.400,190.390 198.400 C 190.560 198.400,190.808 197.860,190.940 197.200 C 191.084 196.479,191.430 196.000,191.807 196.000 C 192.152 196.000,192.706 195.775,193.039 195.500 C 194.747 194.088,196.000 192.782,196.000 192.413 C 196.000 192.154,197.623 192.000,200.351 192.000 L 204.703 192.000 205.196 193.190 M271.365 192.508 C 271.645 192.788,272.081 193.403,272.333 193.876 C 272.586 194.348,273.335 194.854,273.997 194.999 C 274.659 195.145,275.200 195.410,275.200 195.588 C 275.200 195.767,275.609 196.016,276.108 196.141 C 276.766 196.306,277.164 196.870,277.552 198.185 C 277.847 199.183,278.227 200.000,278.397 200.000 C 278.707 200.000,279.600 203.062,279.600 204.126 C 279.600 204.482,279.007 204.793,278.028 204.949 C 277.164 205.087,276.219 205.435,275.928 205.723 C 275.638 206.010,275.081 206.366,274.691 206.513 C 274.301 206.661,273.861 207.101,273.713 207.491 C 273.566 207.881,273.215 208.433,272.934 208.717 C 272.653 209.001,272.305 210.126,272.160 211.217 L 271.897 213.200 267.000 213.200 L 262.103 213.200 261.838 211.200 C 261.692 210.100,261.411 209.200,261.213 209.200 C 261.016 209.200,260.728 208.795,260.574 208.300 C 260.138 206.895,257.992 205.208,256.297 204.937 C 255.092 204.744,254.811 204.550,255.006 204.045 C 255.144 203.690,255.356 202.905,255.478 202.300 C 255.600 201.695,255.823 201.200,255.974 201.200 C 256.125 201.200,256.490 200.260,256.784 199.112 C 257.320 197.018,257.971 196.000,258.771 196.000 C 259.007 196.000,259.200 195.864,259.200 195.698 C 259.200 195.531,259.730 195.161,260.377 194.874 C 261.024 194.588,261.788 193.824,262.074 193.177 L 262.595 192.000 266.726 192.000 C 269.533 192.000,271.020 192.163,271.365 192.508 " stroke="none" fill="#5c543c" fill-rule="evenodd"></path><path id="path2" d="M126.900 182.848 C 126.185 183.054,125.600 183.364,125.600 183.537 C 125.600 183.709,124.970 184.098,124.200 184.400 C 123.430 184.702,122.800 185.184,122.800 185.471 C 122.800 185.758,122.440 186.218,122.000 186.493 C 121.560 186.768,121.200 187.219,121.200 187.496 C 121.200 187.773,121.048 188.000,120.862 188.000 C 120.676 188.000,120.001 188.450,119.362 189.000 C 118.723 189.549,118.101 189.999,117.980 190.000 C 117.860 190.000,117.519 190.675,117.224 191.500 C 116.929 192.325,116.488 193.128,116.244 193.285 C 115.420 193.815,115.653 207.710,116.500 208.557 C 116.885 208.942,117.200 209.418,117.200 209.615 C 117.200 209.811,117.728 210.474,118.373 211.086 C 119.019 211.699,119.736 212.380,119.967 212.600 C 120.198 212.820,121.257 213.924,122.321 215.052 C 123.598 216.407,124.722 217.206,125.628 217.403 C 126.382 217.566,127.129 217.903,127.286 218.150 C 127.811 218.975,140.108 218.750,140.957 217.900 C 141.342 217.515,141.907 217.200,142.212 217.200 C 142.871 217.200,145.586 214.655,146.585 213.100 C 146.974 212.495,147.501 212.000,147.757 212.000 C 148.323 212.000,149.487 210.685,150.087 209.369 C 150.330 208.836,150.656 208.400,150.812 208.400 C 151.947 208.400,152.037 193.986,150.906 193.255 C 150.690 193.115,150.276 192.339,149.987 191.530 C 149.694 190.712,149.010 189.826,148.443 189.530 C 147.197 188.882,146.000 187.740,146.000 187.200 C 146.000 186.980,145.845 186.800,145.656 186.800 C 145.467 186.800,144.702 186.172,143.956 185.404 C 143.210 184.637,142.375 184.007,142.100 184.004 C 141.825 184.002,141.600 183.828,141.600 183.619 C 141.600 182.510,130.149 181.909,126.900 182.848 M193.660 182.858 C 192.923 183.070,191.944 183.594,191.484 184.022 C 191.025 184.450,190.413 184.800,190.125 184.800 C 189.836 184.800,189.600 185.064,189.600 185.386 C 189.600 185.708,189.240 186.165,188.800 186.400 C 188.360 186.635,188.000 187.092,188.000 187.414 C 188.000 187.736,187.739 188.000,187.420 188.000 C 187.101 188.000,186.696 188.244,186.520 188.542 C 186.344 188.839,185.795 189.296,185.300 189.556 C 184.805 189.816,184.400 190.279,184.400 190.586 C 184.400 190.892,184.147 191.396,183.837 191.706 C 182.877 192.666,182.405 195.232,182.402 199.500 C 182.401 201.965,182.241 203.600,182.000 203.600 C 181.780 203.600,181.600 203.870,181.600 204.200 C 181.600 204.530,181.737 204.800,181.905 204.800 C 182.073 204.800,182.426 205.705,182.689 206.812 C 182.951 207.918,183.432 209.089,183.757 209.414 C 184.082 209.739,184.462 210.364,184.601 210.802 C 184.740 211.241,185.028 211.600,185.240 211.600 C 185.614 211.600,187.107 213.053,189.216 215.469 C 189.775 216.110,190.855 216.886,191.616 217.194 C 192.377 217.502,193.128 217.945,193.285 218.177 C 193.467 218.446,195.990 218.600,200.200 218.600 C 204.410 218.600,206.933 218.446,207.115 218.177 C 207.272 217.945,208.030 217.500,208.800 217.188 C 210.193 216.624,211.299 215.634,213.196 213.251 C 213.743 212.563,214.412 212.000,214.682 212.000 C 214.951 212.000,215.387 211.599,215.649 211.108 C 215.912 210.618,216.368 209.975,216.663 209.680 C 216.957 209.385,217.317 208.662,217.461 208.072 C 217.605 207.482,217.911 206.878,218.140 206.728 C 218.637 206.403,218.533 194.733,218.030 194.411 C 217.849 194.295,217.571 193.603,217.413 192.873 C 217.254 192.143,216.889 191.456,216.602 191.345 C 216.314 191.235,215.988 190.798,215.877 190.374 C 215.767 189.951,215.344 189.482,214.938 189.332 C 214.532 189.183,214.056 188.822,213.880 188.530 C 213.704 188.239,213.299 188.000,212.980 188.000 C 212.661 188.000,212.400 187.785,212.400 187.523 C 212.400 187.128,210.479 185.183,208.553 183.628 C 207.101 182.456,196.891 181.928,193.660 182.858 M260.300 182.881 C 259.475 183.100,258.800 183.420,258.800 183.591 C 258.800 183.763,258.260 184.127,257.600 184.400 C 256.940 184.673,256.400 185.102,256.400 185.352 C 256.400 185.603,256.040 186.032,255.600 186.307 C 255.160 186.582,254.800 187.075,254.800 187.403 C 254.800 187.732,254.524 188.000,254.187 188.000 C 253.851 188.000,253.478 188.252,253.360 188.561 C 253.241 188.869,252.798 189.212,252.374 189.323 C 251.951 189.433,251.478 189.856,251.324 190.262 C 251.171 190.668,250.817 191.231,250.538 191.513 C 250.259 191.795,249.914 192.650,249.771 193.413 C 249.628 194.176,249.351 194.800,249.155 194.800 C 248.960 194.800,248.800 197.410,248.800 200.600 C 248.800 203.790,248.960 206.400,249.155 206.400 C 249.351 206.400,249.628 207.024,249.771 207.787 C 249.914 208.550,250.266 209.409,250.553 209.695 C 250.839 209.982,251.288 210.618,251.551 211.108 C 251.813 211.599,252.249 212.000,252.518 212.000 C 252.788 212.000,253.457 212.563,254.004 213.251 C 255.901 215.634,257.007 216.624,258.400 217.188 C 259.170 217.500,259.928 217.945,260.085 218.177 C 260.267 218.446,262.790 218.600,267.000 218.600 C 271.210 218.600,273.733 218.446,273.915 218.177 C 274.072 217.945,274.823 217.502,275.584 217.194 C 276.345 216.886,277.425 216.110,277.984 215.469 C 280.093 213.053,281.586 211.600,281.960 211.600 C 282.172 211.600,282.454 211.261,282.585 210.848 C 282.716 210.434,283.170 209.696,283.593 209.208 C 284.017 208.720,284.482 207.528,284.627 206.560 C 284.772 205.592,285.050 204.800,285.245 204.800 C 285.440 204.800,285.600 204.080,285.600 203.200 C 285.600 202.320,285.420 201.600,285.200 201.600 C 284.966 201.600,284.799 200.232,284.798 198.300 C 284.795 194.683,284.224 191.978,283.357 191.480 C 283.051 191.304,282.800 190.906,282.800 190.594 C 282.800 190.283,282.395 189.816,281.900 189.556 C 281.405 189.296,280.856 188.839,280.680 188.542 C 280.504 188.244,280.099 188.000,279.780 188.000 C 279.461 188.000,279.196 187.775,279.191 187.500 C 279.186 187.225,278.443 186.370,277.540 185.600 C 276.637 184.830,275.681 183.992,275.415 183.737 C 274.084 182.463,264.020 181.893,260.300 182.881 M138.000 185.102 C 138.000 185.269,138.585 185.662,139.300 185.975 C 140.723 186.600,142.307 188.124,143.122 189.652 C 143.409 190.190,144.354 190.938,145.222 191.314 C 146.090 191.690,146.800 192.259,146.800 192.579 C 146.800 192.899,147.044 193.304,147.342 193.480 C 148.392 194.100,148.800 195.582,148.800 198.774 C 148.800 200.658,148.966 202.000,149.200 202.000 C 149.420 202.000,149.600 202.630,149.600 203.400 C 149.600 204.170,149.438 204.800,149.239 204.800 C 149.041 204.800,148.690 205.340,148.460 206.000 C 148.230 206.660,147.852 207.200,147.621 207.200 C 147.389 207.200,147.194 207.425,147.187 207.700 C 147.167 208.427,145.968 209.713,144.700 210.368 C 144.095 210.680,143.600 211.139,143.600 211.387 C 143.600 213.917,139.085 216.000,133.600 216.000 C 128.256 216.000,123.600 213.922,123.600 211.538 C 123.600 211.150,121.657 209.200,121.271 209.200 C 120.853 209.200,119.745 207.841,119.020 206.439 C 117.632 203.755,118.437 193.200,120.029 193.200 C 120.233 193.200,120.400 192.929,120.400 192.599 C 120.400 192.268,121.110 191.690,121.978 191.314 C 122.846 190.938,123.791 190.190,124.078 189.652 C 124.893 188.124,126.477 186.600,127.900 185.975 C 128.615 185.662,129.200 185.269,129.200 185.102 C 129.200 184.936,131.180 184.800,133.600 184.800 C 136.020 184.800,138.000 184.936,138.000 185.102 M204.800 185.151 C 204.800 185.345,205.361 185.735,206.047 186.019 C 207.264 186.524,209.200 188.290,209.200 188.896 C 209.200 189.444,210.598 190.613,212.113 191.332 C 212.931 191.720,213.600 192.254,213.600 192.519 C 213.601 192.783,214.023 193.491,214.539 194.090 C 216.171 195.989,216.311 206.800,214.702 206.800 C 214.525 206.800,214.207 207.255,213.996 207.810 C 213.785 208.366,213.320 208.933,212.962 209.070 C 212.126 209.391,210.402 210.985,210.393 211.446 C 210.382 212.047,206.936 215.168,205.811 215.596 C 204.276 216.179,195.879 216.108,194.519 215.500 C 193.409 215.004,192.299 213.949,189.600 210.826 C 188.830 209.935,187.912 209.112,187.561 208.996 C 187.209 208.879,186.579 208.070,186.161 207.197 C 185.742 206.324,185.265 205.607,185.100 205.605 C 184.935 205.602,184.800 203.260,184.800 200.400 C 184.800 197.190,184.954 195.200,185.201 195.200 C 185.422 195.200,185.907 194.496,186.280 193.637 C 186.716 192.631,187.418 191.853,188.251 191.456 C 189.830 190.703,191.200 189.567,191.200 189.010 C 191.200 188.382,193.240 186.612,194.700 185.973 C 195.415 185.661,196.000 185.269,196.000 185.102 C 196.000 184.936,197.980 184.800,200.400 184.800 C 202.820 184.800,204.800 184.958,204.800 185.151 M271.200 185.102 C 271.200 185.269,271.785 185.661,272.500 185.973 C 273.960 186.612,276.000 188.382,276.000 189.010 C 276.000 189.566,277.370 190.703,278.945 191.454 C 279.655 191.793,280.469 192.598,280.755 193.244 C 281.041 193.889,281.498 194.641,281.771 194.914 C 282.500 195.643,282.930 204.608,282.269 205.287 C 281.995 205.569,281.453 206.475,281.066 207.300 C 280.679 208.125,280.226 208.800,280.058 208.800 C 279.594 208.800,277.200 210.868,277.200 211.269 C 277.200 211.855,273.878 214.965,272.681 215.500 C 271.295 216.119,262.911 216.174,261.333 215.575 C 260.327 215.192,258.418 213.349,255.896 210.326 C 255.403 209.735,254.780 209.240,254.510 209.226 C 254.241 209.212,253.750 208.676,253.419 208.036 C 253.088 207.396,252.588 206.796,252.308 206.703 C 251.537 206.447,251.329 195.594,252.084 195.018 C 252.386 194.788,252.930 193.970,253.292 193.200 C 253.691 192.352,254.457 191.579,255.235 191.240 C 256.552 190.666,258.000 189.438,258.000 188.896 C 258.000 188.290,259.936 186.524,261.153 186.019 C 261.839 185.735,262.400 185.345,262.400 185.151 C 262.400 184.958,264.380 184.800,266.800 184.800 C 269.220 184.800,271.200 184.936,271.200 185.102 " stroke="none" fill="#c4a40c" fill-rule="evenodd"></path><path id="path3" d="M126.000 181.257 C 124.790 181.457,123.740 181.796,123.667 182.010 C 123.593 182.225,123.323 182.400,123.067 182.400 C 122.810 182.401,122.077 182.851,121.438 183.400 C 120.799 183.950,120.095 184.400,119.873 184.400 C 119.356 184.400,117.200 186.806,117.200 187.383 C 117.200 187.625,116.845 188.126,116.411 188.498 C 115.977 188.869,115.499 189.674,115.349 190.287 C 115.199 190.899,114.880 191.528,114.638 191.685 C 114.045 192.071,114.027 208.711,114.619 209.114 C 114.850 209.271,115.265 210.175,115.542 211.122 C 115.819 212.069,116.350 213.207,116.723 213.652 C 118.451 215.714,119.556 216.685,120.729 217.171 C 121.428 217.460,122.000 217.841,122.000 218.018 C 122.000 219.004,125.319 219.400,133.600 219.400 C 141.881 219.400,145.200 219.004,145.200 218.018 C 145.200 217.841,145.772 217.460,146.471 217.171 C 148.014 216.532,149.937 214.589,150.246 213.359 C 150.370 212.864,150.709 212.367,150.998 212.256 C 151.288 212.145,151.654 211.457,151.813 210.727 C 151.971 209.997,152.303 209.271,152.550 209.114 C 153.170 208.720,153.181 192.088,152.562 191.685 C 152.320 191.528,152.001 190.899,151.851 190.287 C 151.701 189.674,151.223 188.869,150.789 188.498 C 150.355 188.126,150.000 187.587,150.000 187.299 C 150.000 187.011,149.737 186.674,149.415 186.550 C 149.094 186.427,148.721 185.983,148.588 185.563 C 148.455 185.143,148.133 184.800,147.873 184.799 C 147.613 184.799,146.770 184.259,146.000 183.600 C 145.230 182.941,144.390 182.401,144.133 182.401 C 143.877 182.400,143.607 182.230,143.533 182.023 C 143.156 180.953,131.043 180.424,126.000 181.257 M192.698 181.235 C 190.484 181.559,190.074 181.754,188.371 183.300 C 187.947 183.685,187.414 184.000,187.187 184.000 C 186.959 184.000,186.149 184.624,185.387 185.387 C 184.624 186.149,184.000 186.959,184.000 187.187 C 184.000 187.414,183.685 187.947,183.300 188.371 C 181.794 190.030,181.614 190.419,181.217 192.868 C 180.386 197.990,180.875 209.938,181.952 210.800 C 182.089 210.910,182.471 211.540,182.801 212.200 C 183.874 214.349,186.523 217.200,187.447 217.200 C 187.765 217.200,188.124 217.459,188.246 217.776 C 188.659 218.852,193.558 219.600,200.200 219.600 C 206.842 219.600,211.741 218.852,212.154 217.776 C 212.276 217.459,212.655 217.200,212.998 217.200 C 213.790 217.200,217.200 213.816,217.200 213.030 C 217.200 212.706,217.472 212.288,217.804 212.102 C 220.321 210.693,220.206 191.505,217.665 188.777 C 217.189 188.267,216.800 187.613,216.800 187.325 C 216.800 187.036,216.616 186.800,216.391 186.800 C 216.167 186.800,215.796 186.389,215.567 185.887 C 215.338 185.384,214.577 184.722,213.875 184.416 C 213.174 184.109,212.365 183.530,212.077 183.129 C 211.790 182.728,211.310 182.400,211.011 182.400 C 210.711 182.400,210.407 182.225,210.333 182.011 C 209.980 180.980,198.030 180.454,192.698 181.235 M259.401 181.247 C 258.081 181.439,256.941 181.777,256.867 181.998 C 256.794 182.219,256.489 182.400,256.189 182.400 C 255.890 182.400,255.410 182.724,255.123 183.120 C 254.835 183.516,254.039 184.068,253.353 184.346 C 252.668 184.625,251.872 185.291,251.586 185.826 C 251.299 186.362,250.915 186.800,250.732 186.800 C 250.550 186.800,250.400 187.036,250.400 187.325 C 250.400 187.613,250.025 188.252,249.567 188.744 C 248.645 189.733,248.000 191.607,248.000 193.297 C 248.000 193.904,247.820 194.400,247.600 194.400 C 247.351 194.400,247.200 196.733,247.200 200.600 C 247.200 204.010,247.339 206.800,247.508 206.800 C 247.678 206.800,248.028 207.912,248.287 209.272 C 248.556 210.691,249.021 211.892,249.378 212.092 C 249.720 212.283,250.000 212.706,250.000 213.030 C 250.000 213.816,253.410 217.200,254.202 217.200 C 254.545 217.200,254.924 217.459,255.046 217.776 C 255.459 218.852,260.358 219.600,267.000 219.600 C 273.642 219.600,278.541 218.852,278.954 217.776 C 279.076 217.459,279.435 217.200,279.753 217.200 C 280.071 217.200,280.932 216.584,281.666 215.832 C 283.485 213.966,283.757 213.599,284.420 212.100 C 284.736 211.385,285.113 210.800,285.257 210.800 C 286.265 210.800,286.790 197.841,285.983 192.868 C 285.586 190.419,285.406 190.030,283.900 188.371 C 283.515 187.947,283.200 187.414,283.200 187.187 C 283.200 186.649,280.551 184.000,280.013 184.000 C 279.786 184.000,279.253 183.685,278.829 183.300 C 277.170 181.794,276.781 181.614,274.332 181.217 C 271.347 180.733,262.816 180.750,259.401 181.247 M140.100 182.821 C 140.925 183.050,141.600 183.409,141.600 183.619 C 141.600 183.828,141.825 184.002,142.100 184.004 C 142.375 184.007,143.210 184.637,143.956 185.404 C 144.702 186.172,145.467 186.800,145.656 186.800 C 145.845 186.800,146.000 186.980,146.000 187.200 C 146.000 187.740,147.197 188.882,148.443 189.530 C 149.010 189.826,149.694 190.712,149.987 191.530 C 150.276 192.339,150.690 193.115,150.906 193.255 C 152.037 193.986,151.947 208.400,150.812 208.400 C 150.656 208.400,150.330 208.836,150.087 209.369 C 149.487 210.685,148.323 212.000,147.757 212.000 C 147.501 212.000,146.974 212.495,146.585 213.100 C 145.586 214.655,142.871 217.200,142.212 217.200 C 141.907 217.200,141.342 217.515,140.957 217.900 C 140.108 218.750,127.811 218.975,127.286 218.150 C 127.129 217.903,126.382 217.566,125.628 217.403 C 124.722 217.206,123.598 216.407,122.321 215.052 C 121.257 213.924,120.198 212.820,119.967 212.600 C 119.736 212.380,119.019 211.699,118.373 211.086 C 117.728 210.474,117.200 209.811,117.200 209.615 C 117.200 209.418,116.885 208.942,116.500 208.557 C 115.653 207.710,115.420 193.815,116.244 193.285 C 116.488 193.128,116.929 192.325,117.224 191.500 C 117.519 190.675,117.860 190.000,117.980 190.000 C 118.101 189.999,118.723 189.549,119.362 189.000 C 120.001 188.450,120.676 188.000,120.862 188.000 C 121.048 188.000,121.200 187.773,121.200 187.496 C 121.200 187.219,121.560 186.768,122.000 186.493 C 122.440 186.218,122.800 185.758,122.800 185.471 C 122.800 185.184,123.430 184.702,124.200 184.400 C 124.970 184.098,125.600 183.709,125.600 183.537 C 125.600 182.512,136.966 181.951,140.100 182.821 M206.553 182.836 C 208.244 183.305,208.227 183.294,210.700 185.518 C 211.635 186.359,212.400 187.261,212.400 187.523 C 212.400 187.785,212.661 188.000,212.980 188.000 C 213.299 188.000,213.704 188.239,213.880 188.530 C 214.056 188.822,214.532 189.183,214.938 189.332 C 215.344 189.482,215.767 189.951,215.877 190.374 C 215.988 190.798,216.314 191.235,216.602 191.345 C 216.889 191.456,217.254 192.143,217.413 192.873 C 217.571 193.603,217.849 194.295,218.030 194.411 C 218.533 194.733,218.637 206.403,218.140 206.728 C 217.911 206.878,217.605 207.482,217.461 208.072 C 217.317 208.662,216.957 209.385,216.663 209.680 C 216.368 209.975,215.912 210.618,215.649 211.108 C 215.387 211.599,214.951 212.000,214.682 212.000 C 214.412 212.000,213.743 212.563,213.196 213.251 C 211.299 215.634,210.193 216.624,208.800 217.188 C 208.030 217.500,207.272 217.945,207.115 218.177 C 206.933 218.446,204.410 218.600,200.200 218.600 C 195.990 218.600,193.467 218.446,193.285 218.177 C 193.128 217.945,192.377 217.502,191.616 217.194 C 190.855 216.886,189.775 216.110,189.216 215.469 C 187.107 213.053,185.614 211.600,185.240 211.600 C 185.028 211.600,184.740 211.241,184.601 210.802 C 184.462 210.364,184.082 209.739,183.757 209.414 C 183.432 209.089,182.951 207.918,182.689 206.812 C 182.426 205.705,182.073 204.800,181.905 204.800 C 181.737 204.800,181.600 204.530,181.600 204.200 C 181.600 203.870,181.780 203.600,182.000 203.600 C 182.241 203.600,182.401 201.965,182.402 199.500 C 182.405 195.232,182.877 192.666,183.837 191.706 C 184.147 191.396,184.400 190.892,184.400 190.586 C 184.400 190.279,184.805 189.816,185.300 189.556 C 185.795 189.296,186.344 188.839,186.520 188.542 C 186.696 188.244,187.101 188.000,187.420 188.000 C 187.739 188.000,188.000 187.736,188.000 187.414 C 188.000 187.092,188.360 186.635,188.800 186.400 C 189.240 186.165,189.600 185.708,189.600 185.386 C 189.600 185.064,189.836 184.800,190.125 184.800 C 190.413 184.800,191.025 184.450,191.484 184.022 C 193.125 182.493,202.626 181.745,206.553 182.836 M273.365 182.839 C 274.226 183.078,275.149 183.482,275.415 183.737 C 275.681 183.992,276.637 184.830,277.540 185.600 C 278.443 186.370,279.186 187.225,279.191 187.500 C 279.196 187.775,279.461 188.000,279.780 188.000 C 280.099 188.000,280.504 188.244,280.680 188.542 C 280.856 188.839,281.405 189.296,281.900 189.556 C 282.395 189.816,282.800 190.283,282.800 190.594 C 282.800 190.906,283.051 191.304,283.357 191.480 C 284.224 191.978,284.795 194.683,284.798 198.300 C 284.799 200.232,284.966 201.600,285.200 201.600 C 285.420 201.600,285.600 202.320,285.600 203.200 C 285.600 204.080,285.440 204.800,285.245 204.800 C 285.050 204.800,284.772 205.592,284.627 206.560 C 284.482 207.528,284.017 208.720,283.593 209.208 C 283.170 209.696,282.716 210.434,282.585 210.848 C 282.454 211.261,282.172 211.600,281.960 211.600 C 281.586 211.600,280.093 213.053,277.984 215.469 C 277.425 216.110,276.345 216.886,275.584 217.194 C 274.823 217.502,274.072 217.945,273.915 218.177 C 273.733 218.446,271.210 218.600,267.000 218.600 C 262.790 218.600,260.267 218.446,260.085 218.177 C 259.928 217.945,259.170 217.500,258.400 217.188 C 257.007 216.624,255.901 215.634,254.004 213.251 C 253.457 212.563,252.788 212.000,252.518 212.000 C 252.249 212.000,251.813 211.599,251.551 211.108 C 251.288 210.618,250.839 209.982,250.553 209.695 C 250.266 209.409,249.914 208.550,249.771 207.787 C 249.628 207.024,249.351 206.400,249.155 206.400 C 248.960 206.400,248.800 203.790,248.800 200.600 C 248.800 197.410,248.960 194.800,249.155 194.800 C 249.351 194.800,249.628 194.176,249.771 193.413 C 249.914 192.650,250.259 191.795,250.538 191.513 C 250.817 191.231,251.171 190.668,251.324 190.262 C 251.478 189.856,251.951 189.433,252.374 189.323 C 252.798 189.212,253.241 188.869,253.360 188.561 C 253.478 188.252,253.851 188.000,254.187 188.000 C 254.524 188.000,254.800 187.732,254.800 187.403 C 254.800 187.075,255.160 186.582,255.600 186.307 C 256.040 186.032,256.400 185.603,256.400 185.352 C 256.400 185.102,256.940 184.673,257.600 184.400 C 258.260 184.127,258.800 183.763,258.800 183.591 C 258.800 182.544,270.187 181.957,273.365 182.839 " stroke="none" fill="#ccac14" fill-rule="evenodd"></path><path id="path4" d="M129.200 192.436 C 129.200 193.053,127.103 195.200,126.501 195.200 C 126.226 195.200,126.000 195.380,126.000 195.600 C 126.000 195.820,125.643 196.000,125.206 196.000 C 124.598 196.000,124.305 196.423,123.958 197.800 C 123.709 198.790,123.375 199.600,123.216 199.600 C 123.057 199.600,122.706 200.590,122.435 201.800 C 122.164 203.010,121.776 204.000,121.571 204.000 C 121.367 204.000,121.200 204.180,121.200 204.400 C 121.200 204.620,121.642 204.800,122.181 204.800 C 124.518 204.800,126.924 206.727,127.703 209.224 C 127.973 210.091,128.331 210.800,128.497 210.800 C 128.664 210.800,128.800 211.340,128.800 212.000 L 128.800 213.200 133.600 213.200 L 138.400 213.200 138.400 212.000 C 138.400 211.340,138.541 210.800,138.713 210.800 C 138.885 210.800,139.265 209.990,139.557 209.000 C 139.849 208.010,140.214 207.200,140.369 207.200 C 140.523 207.200,141.046 206.831,141.530 206.379 C 142.015 205.928,143.325 205.343,144.441 205.079 C 146.450 204.605,147.166 202.574,145.656 201.632 C 145.451 201.505,145.077 200.635,144.826 199.700 C 144.575 198.765,144.209 198.000,144.012 198.000 C 143.816 198.000,143.598 197.595,143.528 197.100 C 143.446 196.522,143.078 196.154,142.500 196.072 C 142.005 196.002,141.600 195.789,141.600 195.599 C 141.600 195.409,141.195 195.132,140.700 194.982 C 139.787 194.707,138.000 192.956,138.000 192.338 C 138.000 192.152,136.020 192.000,133.600 192.000 C 130.692 192.000,129.200 192.148,129.200 192.436 M196.000 192.413 C 196.000 192.782,194.747 194.088,193.039 195.500 C 192.706 195.775,192.152 196.000,191.807 196.000 C 191.430 196.000,191.084 196.479,190.940 197.200 C 190.808 197.860,190.560 198.400,190.390 198.400 C 190.219 198.400,189.856 199.345,189.582 200.500 C 189.308 201.655,188.954 202.690,188.796 202.800 C 187.668 203.584,188.037 204.704,189.501 204.938 C 190.975 205.174,193.600 206.934,193.600 207.687 C 193.600 207.890,193.865 208.322,194.188 208.646 C 194.512 208.969,194.895 210.126,195.040 211.217 L 195.303 213.200 200.200 213.200 L 205.097 213.200 205.362 211.200 C 205.508 210.100,205.784 209.200,205.975 209.200 C 206.166 209.200,206.510 208.660,206.740 208.000 C 206.970 207.340,207.335 206.800,207.551 206.800 C 207.766 206.800,208.181 206.573,208.471 206.295 C 209.266 205.537,211.113 204.800,212.219 204.800 C 212.999 204.800,213.200 204.595,213.200 203.800 C 213.200 203.250,213.054 202.800,212.876 202.800 C 212.697 202.800,212.321 201.900,212.039 200.800 C 211.757 199.700,211.368 198.800,211.174 198.800 C 210.981 198.800,210.672 198.215,210.488 197.500 C 210.256 196.601,209.882 196.161,209.276 196.072 C 208.794 196.002,208.400 195.813,208.400 195.653 C 208.400 195.492,207.790 195.140,207.044 194.871 C 206.167 194.553,205.515 193.961,205.196 193.190 L 204.703 192.000 200.351 192.000 C 197.623 192.000,196.000 192.154,196.000 192.413 M262.074 193.177 C 261.788 193.824,261.024 194.588,260.377 194.874 C 259.730 195.161,259.200 195.531,259.200 195.698 C 259.200 195.864,259.007 196.000,258.771 196.000 C 257.971 196.000,257.320 197.018,256.784 199.112 C 256.490 200.260,256.125 201.200,255.974 201.200 C 255.823 201.200,255.600 201.695,255.478 202.300 C 255.356 202.905,255.144 203.690,255.006 204.045 C 254.811 204.550,255.092 204.744,256.297 204.937 C 257.992 205.208,260.138 206.895,260.574 208.300 C 260.728 208.795,261.016 209.200,261.213 209.200 C 261.411 209.200,261.692 210.100,261.838 211.200 L 262.103 213.200 267.000 213.200 L 271.897 213.200 272.160 211.217 C 272.305 210.126,272.653 209.001,272.934 208.717 C 273.215 208.433,273.566 207.881,273.713 207.491 C 273.861 207.101,274.301 206.661,274.691 206.513 C 275.081 206.366,275.638 206.010,275.928 205.723 C 276.219 205.435,277.164 205.087,278.028 204.949 C 279.007 204.793,279.600 204.482,279.600 204.126 C 279.600 203.062,278.707 200.000,278.397 200.000 C 278.227 200.000,277.847 199.183,277.552 198.185 C 277.164 196.870,276.766 196.306,276.108 196.141 C 275.609 196.016,275.200 195.767,275.200 195.588 C 275.200 195.410,274.659 195.145,273.997 194.999 C 273.335 194.854,272.586 194.348,272.333 193.876 C 271.401 192.134,271.001 192.000,266.726 192.000 L 262.595 192.000 262.074 193.177 " stroke="none" fill="#3c3c3c" fill-rule="evenodd"></path></g></svg>