<svg width="300" height="300" viewBox="0 0 300 300" fill="none" xmlns="http://www.w3.org/2000/svg">
<rect width="300" height="300" fill="white"/>
<path d="M74.6202 125.184L74.6189 85.2089C87.4839 109.622 211.731 108.711 226.131 85.2088V125.184C204.31 150.89 91.0536 147.505 74.6202 125.184ZM74.4125 177.867L74.4112 137.89C88.9707 162.866 213.944 160.263 225.924 137.89V177.865C208.997 199.837 98.604 203.482 74.4125 177.867ZM74.0037 231.95L74 191.977C82.5067 213.819 208.736 217.412 225.512 191.977V231.952C205.417 255.229 98.7993 256.791 74.0037 231.95ZM226.005 70.1097C226.005 54.6866 162.704 44.9949 112.336 52.7064C61.969 60.4179 61.969 79.8014 112.336 87.513C162.704 95.2245 226.005 85.5328 226.005 70.1097Z" fill="black"/>
</svg>
