<svg width="300" height="300" viewBox="0 0 300 300" fill="none" xmlns="http://www.w3.org/2000/svg">
<rect width="300" height="300" fill="white"/>
<path d="M108.832 57L50 95.4132L90.6791 127.989L150 91.3586L108.832 57ZM50 160.567L108.832 198.98L150 164.618L90.6791 127.989L50 160.567ZM150 164.618L191.168 198.98L250 160.567L209.321 127.989L150 164.618Z" fill="#007EE5"/>
<path d="M250 95.4132L191.168 57L150 91.3588L209.321 127.989L250 95.4132ZM150.121 172.011L108.832 206.272L91.1639 194.736V207.668L150.121 243.021L209.078 207.668V194.736L191.409 206.272L150.121 172.011Z" fill="#007EE5"/>
</svg>
