<svg width="300" height="300" viewBox="0 0 300 300" fill="none" xmlns="http://www.w3.org/2000/svg">
<rect width="300" height="300" fill="white"/>
<path d="M149.687 50.0008H224.799C228.118 49.9741 231.409 50.6086 234.481 51.8674C237.552 53.1261 240.342 54.9838 242.688 57.3322C245.033 59.6805 246.888 62.4725 248.143 65.5451C249.398 68.6178 250.029 71.9097 249.999 75.2288V150.313C249.999 205.381 205.38 250 150.312 250H149.743C136.649 250.011 123.68 247.442 111.579 242.439C99.4779 237.436 88.4815 230.096 79.2183 220.841C69.9551 211.586 62.6068 200.596 57.5933 188.499C52.5798 176.402 49.9996 163.436 50 150.341C50 95.1162 94.5435 50.5696 149.687 50.0008Z" fill="#25C16F"/>
<path d="M149.687 94.5479C124.397 94.5479 103.894 115.048 103.894 140.341V171.479C104.075 179.813 110.788 186.525 119.122 186.707H132.075V150.938H114.575V140.938C115.637 122.107 131.222 107.376 150.087 107.376C168.953 107.376 184.5 122.079 185.562 140.938V150.938H167.812V186.732H179.515V187.3C179.39 195.032 173.156 201.269 165.453 201.363H151.475C150.337 201.363 149.087 201.932 149.087 203.066C149.115 203.69 149.375 204.282 149.817 204.724C150.259 205.166 150.85 205.426 151.475 205.454H165.537C175.553 205.391 183.656 197.288 183.718 187.272V186.135C187.064 185.381 190.05 183.504 192.179 180.816C194.309 178.128 195.453 174.792 195.421 171.363V140.938C195.99 115.145 175.534 94.576 149.628 94.576L149.687 94.5479Z" fill="white"/>
</svg>
