<svg width="300" height="300" viewBox="0 0 300 300" fill="none" xmlns="http://www.w3.org/2000/svg">
<rect width="300" height="300" fill="white"/>
<path d="M203.562 113.942V89.0086C206.857 87.4686 209.647 85.0245 211.607 81.9606C213.567 78.8968 214.616 75.3393 214.633 71.7023V71.1302C214.633 60.5258 206.037 51.9293 195.433 51.9293H194.86C184.256 51.9293 175.659 60.5258 175.659 71.1302V71.7023C175.676 75.3393 176.726 78.8968 178.685 81.9606C180.645 85.0245 183.435 87.4686 186.73 89.0086V113.942C177.26 115.392 168.341 119.319 160.877 125.325L92.4951 72.0623C92.9827 70.3021 93.2371 68.492 93.2658 66.6752C93.2742 62.396 92.0132 58.2104 89.6425 54.648C87.2717 51.0855 83.8977 48.3062 79.9472 46.6615C75.9967 45.0169 71.6471 44.5808 67.4487 45.4085C63.2503 46.2362 59.3917 48.2904 56.361 51.3114C53.3302 54.3323 51.2635 58.1842 50.4222 62.3799C49.5809 66.5756 50.0029 70.9265 51.6347 74.8824C53.2665 78.8382 56.0349 82.2212 59.5896 84.6035C63.1444 86.9858 67.3258 88.2603 71.605 88.2658C75.3485 88.2482 79.0219 87.2487 82.2584 85.3674L149.595 137.765C137.215 156.467 137.547 180.84 150.429 199.2L129.949 219.686C128.293 219.157 126.569 218.875 124.83 218.852C115.022 218.86 107.076 226.815 107.079 236.623C107.081 246.43 115.032 254.38 124.84 254.383C134.648 254.386 142.602 246.44 142.611 236.631C142.588 234.894 142.306 233.169 141.776 231.514L162.037 211.246C180.14 225.182 205.003 226.383 224.366 214.256C243.727 202.128 253.498 179.232 248.859 156.862C244.22 134.492 226.15 117.371 203.562 113.941V113.942ZM195.164 195.947C191.421 196.048 187.696 195.398 184.209 194.035C180.721 192.672 177.542 190.624 174.859 188.012C172.176 185.4 170.043 182.277 168.587 178.828C167.131 175.378 166.381 171.672 166.381 167.927C166.381 164.183 167.131 160.477 168.587 157.027C170.043 153.577 172.176 150.454 174.859 147.842C177.542 145.231 180.721 143.183 184.209 141.82C187.696 140.457 191.421 139.807 195.164 139.908C210.248 140.436 222.206 152.813 222.214 167.907C222.221 182.999 210.276 195.389 195.192 195.933" fill="#FF7A59"/>
</svg>
