<?xml version="1.0"?>
<svg xmlns="http://www.w3.org/2000/svg" viewBox="0 0 256 256" width="512" height="512"><path d="M79.749,221.5h-7.2a5.674,5.674,0,0,1-5.492-4.252l-1.667-6.47-5.751,3.4a5.674,5.674,0,0,1-6.893-.876l-5.09-5.09a5.675,5.675,0,0,1-.878-6.891l3.4-5.753L43.709,193.9a5.674,5.674,0,0,1-4.254-5.494v-7.2a5.675,5.675,0,0,1,4.252-5.494l6.469-1.667-3.394-5.75a5.674,5.674,0,0,1,.876-6.894l5.09-5.089a5.672,5.672,0,0,1,6.891-.877l5.752,3.4,1.667-6.467a5.675,5.675,0,0,1,5.493-4.254h7.2a5.674,5.674,0,0,1,5.493,4.251l1.668,6.47,5.75-3.394a5.674,5.674,0,0,1,6.893.876l5.09,5.089a5.675,5.675,0,0,1,.877,6.892l-3.395,5.752,6.466,1.666h0a5.675,5.675,0,0,1,4.252,5.494v7.2a5.673,5.673,0,0,1-4.253,5.493l-6.468,1.667,3.394,5.751a5.673,5.673,0,0,1-.876,6.893l-5.089,5.09a5.677,5.677,0,0,1-6.892.877l-5.753-3.4-1.666,6.467A5.676,5.676,0,0,1,79.749,221.5ZM66.983,204.436a2.5,2.5,0,0,1,2.421,1.876L71.9,216a.674.674,0,0,0,.652.5h7.2a.674.674,0,0,0,.653-.506l2.5-9.682a2.5,2.5,0,0,1,3.692-1.529l8.613,5.084a.674.674,0,0,0,.816-.106l5.089-5.089a.673.673,0,0,0,.1-.819l-5.082-8.611a2.5,2.5,0,0,1,1.529-3.691l9.685-2.5a.674.674,0,0,0,.5-.652v-7.2a.674.674,0,0,0-.505-.653l-9.683-2.5a2.5,2.5,0,0,1-1.529-3.692l5.084-8.613a.673.673,0,0,0-.106-.816l-5.089-5.09a.675.675,0,0,0-.819-.1l-8.611,5.082A2.5,2.5,0,0,1,82.9,163.3l-2.5-9.685a.673.673,0,0,0-.652-.5h-7.2a.676.676,0,0,0-.653.5L69.4,163.3a2.5,2.5,0,0,1-3.692,1.529L57.1,159.742a.673.673,0,0,0-.817.105l-5.09,5.09a.673.673,0,0,0-.1.818l5.082,8.611a2.5,2.5,0,0,1-1.528,3.692l-9.685,2.5a.674.674,0,0,0-.5.653v7.2a.675.675,0,0,0,.5.653l9.684,2.495a2.5,2.5,0,0,1,1.528,3.692l-5.084,8.612a.674.674,0,0,0,.106.816l5.09,5.091a.677.677,0,0,0,.819.1l8.61-5.083A2.5,2.5,0,0,1,66.983,204.436Z" fill="#ed9abc"/><path d="M76.15,198.337a13.533,13.533,0,1,1,13.533-13.532A13.548,13.548,0,0,1,76.15,198.337Zm0-22.066a8.533,8.533,0,1,0,8.533,8.534A8.544,8.544,0,0,0,76.15,176.271Z" fill="#ed9abc"/><path d="M188.733,178.43V77.57a22.257,22.257,0,1,0-15.751,0v51.538L84.026,105.744V77.57a22.257,22.257,0,1,0-15.751,0v38.394a2.5,2.5,0,0,0,1.865,2.418l102.842,27.012V178.43a22.258,22.258,0,1,0,15.751,0ZM163.6,56.757a17.257,17.257,0,1,1,17.257,17.257A17.276,17.276,0,0,1,163.6,56.757Zm-104.707,0A17.257,17.257,0,1,1,76.15,74.014,17.276,17.276,0,0,1,58.894,56.757Zm117.224,84.29L73.275,114.036V78.822a21.629,21.629,0,0,0,5.751,0v28.85a2.5,2.5,0,0,0,1.865,2.418l93.956,24.678a2.5,2.5,0,0,0,3.135-2.418V78.822a21.629,21.629,0,0,0,5.751,0v98.356a21.629,21.629,0,0,0-5.751,0V143.465A2.5,2.5,0,0,0,176.118,141.047Zm4.74,75.453a17.257,17.257,0,1,1,17.257-17.257A17.276,17.276,0,0,1,180.858,216.5Z" fill="#846f75"/></svg>
