<svg width="300" height="300" viewBox="0 0 300 300" fill="none" xmlns="http://www.w3.org/2000/svg">
<rect width="300" height="300" fill="white"/>
<path d="M108.5 244.049C99.822 232.068 92.7221 222.042 92.7221 221.77C92.7221 221.427 95.6734 221.273 102.263 221.273H111.804L111.923 200.705L112.042 180.136H123.861H135.679L135.798 200.705L135.917 221.273H145.837C151.293 221.273 155.873 221.389 156.014 221.53C156.255 221.771 126.687 263.298 125.041 265.031C124.323 265.787 123.399 264.614 108.503 244.049H108.5ZM59.5878 211.465C58.0646 210.32 56.2006 208.633 55.4449 207.716L54.071 206.049L54.1898 193.093L54.3087 180.136L66.4681 180.015L78.6277 179.893V184.446V188.999H90.9006H103.174V201.273V213.546H82.7637H62.3535L59.5848 211.464L59.5878 211.465ZM143.633 201.273V189H184.578H225.523L225.375 180.249C225.239 172.276 225.137 171.318 224.21 169.454C223.121 167.261 221.205 165.718 218.082 164.52C216.385 163.868 213.656 163.772 196.852 163.772H177.571L177.762 158.09C178.522 135.426 176.097 119.835 169.877 107.406C164.812 97.2853 158.618 91.1304 148.747 86.4095L143.633 83.9637V72.3887C143.633 62.6249 143.736 60.8138 144.287 60.8138C147.549 60.8138 157.368 64.2217 164.123 67.6986C178.595 75.1477 189.909 87.9775 196.389 104.291C200.153 113.767 202.833 125.118 203.993 136.498L204.317 139.68L211.362 139.966C219.697 140.305 224.152 141.302 230.227 144.189C238.091 147.927 242.961 152.672 246.591 160.135C249.771 166.673 250 168.576 250 188.553V205.873L247.659 208.348C246.372 209.709 244.393 211.436 243.263 212.185L241.207 213.546H192.42H143.633V201.273V201.273ZM52.6808 166.599C51.835 166.029 50.8875 165.057 50.575 164.44C50.1371 163.574 50.0053 156.12 50 131.906V100.495L51.0318 98.9505C53.2568 95.6196 50.3293 95.8164 97.6584 95.8157C136.123 95.8152 140.207 95.8843 141.348 96.5584C144.219 98.2541 144.094 96.6511 144.094 131.704C144.094 166.255 144.166 165.227 141.633 166.886C140.591 167.569 136.658 167.635 97.3572 167.635H54.2252L52.6874 166.599H52.6808ZM134.996 136.655C134.996 115.849 134.956 114.8 134.201 115.452C133.267 116.258 102.841 140.035 100.33 141.921C98.8893 143.004 98.306 143.171 96.6316 142.982C94.8686 142.783 92.6607 141.26 77.1058 129.514C67.4599 122.23 59.459 116.27 59.3263 116.27C59.1942 116.27 59.0852 125.782 59.0852 137.407V158.544H97.0411H134.997V136.655H134.996ZM116.114 118.77L133.714 105.133L115.945 105.014C106.172 104.949 90.1526 104.949 80.3455 105.014L62.5137 105.133L80.1803 118.901C89.897 126.473 97.9969 132.61 98.1802 132.538C98.3652 132.466 106.434 126.27 116.114 118.77ZM54.3263 62.2911C54.6202 41.4805 54.8322 38.5389 56.1936 36.4615C57.8523 33.9303 56.8241 33.9942 95.7454 34.0015C123.287 34.0081 131.84 34.1382 132.68 34.5696C133.28 34.8784 134.201 35.7085 134.725 36.4141C135.659 37.6714 135.68 38.1566 135.804 60.6194L135.929 83.5418H123.644H111.359V71.0414V58.5409H94.9944H78.6304V71.0414V83.5418H66.3284H54.0264L54.3269 62.2911H54.3263Z" fill="#00BCF2"/>
</svg>
