<svg width="24" height="24" viewBox="0 0 24 24" fill="none" xmlns="http://www.w3.org/2000/svg">
<path d="M16.5642 7.96076H14.7709V5.59772C14.7709 5.26765 14.5033 5 14.1731 5C13.8431 5 13.5754 5.2677 13.5754 5.59772V7.96076H10.5866V5.59772C10.5866 5.26765 10.3189 5 9.98885 5C9.65867 5 9.39103 5.2677 9.39103 5.59772V7.96076H7.59782C7.26765 7.96076 7 8.22846 7 8.55848V11.918C7 14.5172 8.96259 16.6634 11.4833 16.9606V19.4023C11.4833 19.7325 11.751 20 12.081 20C12.4111 20 12.6788 19.7323 12.6788 19.4023V16.9606C15.1995 16.6634 17.1622 14.5172 17.1622 11.9181V8.55848C17.1621 8.22846 16.8943 7.96076 16.5642 7.96076ZM15.9664 11.918C15.9664 14.0604 14.2233 15.8036 12.081 15.8036C9.9386 15.8036 8.19549 14.0604 8.19549 11.918V9.15635H15.9664V11.918Z" fill="#005AD9"/>
<path fill-rule="evenodd" clip-rule="evenodd" d="M12 21C16.9706 21 21 16.9706 21 12C21 7.02944 16.9706 3 12 3C7.02944 3 3 7.02944 3 12C3 16.9706 7.02944 21 12 21ZM12 22C17.5228 22 22 17.5228 22 12C22 6.47715 17.5228 2 12 2C6.47715 2 2 6.47715 2 12C2 17.5228 6.47715 22 12 22Z" fill="#005AD9"/>
</svg>
