<svg width="300" height="300" viewBox="0 0 300 300" fill="none" xmlns="http://www.w3.org/2000/svg">
<rect width="300" height="300" fill="white"/>
<path d="M145.228 95.2679C151.678 88.5471 160.658 84.3788 170.59 84.3788C183.792 84.3788 195.311 91.7405 201.445 102.669C206.775 100.288 212.675 98.9628 218.883 98.9628C242.695 98.9628 262 118.436 262 142.456C262 166.478 242.695 185.951 218.883 185.951C216.031 185.953 213.186 185.67 210.39 185.105C204.989 194.74 194.695 201.25 182.88 201.25C177.935 201.25 173.256 200.108 169.091 198.077C163.615 210.957 150.858 219.988 135.989 219.988C120.504 219.988 107.308 210.191 102.242 196.45C100.029 196.92 97.7351 197.165 95.3818 197.165C76.9459 197.165 62 182.065 62 163.436C62 150.952 68.7151 140.051 78.6923 134.219C76.6382 129.493 75.4957 124.276 75.4957 118.792C75.4957 97.3674 92.8889 80 114.342 80C126.937 80 138.131 85.9886 145.228 95.2679Z" fill="#00A1E0"/>
<path d="M90.9681 152.594C90.8428 152.922 91.0137 152.991 91.0536 153.048C91.4296 153.321 91.8115 153.518 92.1961 153.737C94.236 154.819 96.1621 155.136 98.1763 155.136C102.279 155.136 104.826 152.953 104.826 149.441V149.372C104.826 146.124 101.951 144.945 99.2532 144.093L98.9028 143.979C96.8686 143.318 95.1136 142.748 95.1136 141.409V141.338C95.1136 140.193 96.1393 139.349 97.7291 139.349C99.4954 139.349 101.592 139.936 102.943 140.683C102.943 140.683 103.339 140.939 103.484 140.555C103.564 140.349 104.248 138.509 104.319 138.31C104.396 138.093 104.259 137.933 104.119 137.848C102.578 136.911 100.447 136.27 98.242 136.27L97.8318 136.272C94.0768 136.272 91.4558 138.54 91.4558 141.791V141.859C91.4558 145.287 94.3475 146.398 97.057 147.173L97.4928 147.307C99.4672 147.913 101.168 148.435 101.168 149.825V149.894C101.168 151.164 100.063 152.11 98.2792 152.11C97.5869 152.11 95.3789 152.096 92.9943 150.588C92.7064 150.42 92.5385 150.298 92.3162 150.164C92.1995 150.09 91.906 149.962 91.7779 150.349L90.9681 152.594ZM151.028 152.594C150.902 152.922 151.073 152.991 151.113 153.048C151.489 153.321 151.871 153.518 152.256 153.737C154.295 154.819 156.222 155.136 158.236 155.136C162.338 155.136 164.885 152.953 164.885 149.441V149.372C164.885 146.124 162.011 144.945 159.313 144.093L158.962 143.979C156.928 143.318 155.173 142.748 155.173 141.409V141.338C155.173 140.193 156.199 139.349 157.788 139.349C159.555 139.349 161.652 139.936 163.002 140.683C163.002 140.683 163.398 140.939 163.543 140.555C163.623 140.349 164.307 138.509 164.378 138.31C164.455 138.093 164.318 137.933 164.179 137.848C162.637 136.911 160.506 136.27 158.301 136.27L157.891 136.272C154.136 136.272 151.515 138.54 151.515 141.791V141.859C151.515 145.287 154.407 146.398 157.116 147.173L157.552 147.307C159.526 147.913 161.23 148.435 161.23 149.825V149.894C161.23 151.164 160.122 152.11 158.338 152.11C157.646 152.11 155.438 152.096 153.054 150.588C152.766 150.42 152.595 150.304 152.379 150.164C152.304 150.116 151.957 149.982 151.837 150.349L151.028 152.594ZM192.029 145.714C192.029 147.699 191.659 149.263 190.929 150.369C190.208 151.463 189.117 151.996 187.596 151.996C186.072 151.996 184.987 151.466 184.277 150.369C183.559 149.266 183.195 147.699 183.195 145.714C183.195 143.731 183.559 142.169 184.277 141.075C184.987 139.993 186.072 139.466 187.596 139.466C189.117 139.466 190.209 139.993 190.932 141.075C191.659 142.169 192.029 143.731 192.029 145.714ZM195.454 142.033C195.117 140.896 194.593 139.893 193.895 139.058C193.197 138.221 192.314 137.548 191.265 137.058C190.22 136.571 188.984 136.323 187.596 136.323C186.206 136.323 184.969 136.571 183.924 137.058C182.875 137.548 181.992 138.221 181.291 139.058C180.596 139.896 180.072 140.899 179.733 142.033C179.4 143.164 179.231 144.4 179.231 145.714C179.231 147.027 179.4 148.266 179.733 149.394C180.072 150.528 180.593 151.531 181.294 152.369C181.992 153.206 182.878 153.876 183.924 154.352C184.972 154.827 186.206 155.07 187.596 155.07C188.984 155.07 190.217 154.827 191.266 154.352C192.311 153.876 193.197 153.206 193.895 152.369C194.593 151.534 195.117 150.531 195.454 149.394C195.79 148.264 195.958 147.024 195.958 145.714C195.958 144.403 195.79 143.164 195.454 142.033ZM223.575 151.465C223.461 151.132 223.139 151.257 223.139 151.257C222.641 151.448 222.111 151.625 221.547 151.713C220.974 151.801 220.344 151.847 219.669 151.847C218.011 151.847 216.695 151.354 215.752 150.38C214.806 149.405 214.276 147.83 214.282 145.699C214.287 143.759 214.754 142.3 215.595 141.189C216.43 140.084 217.701 139.517 219.396 139.517C220.809 139.517 221.886 139.679 223.014 140.035C223.014 140.035 223.284 140.152 223.413 139.799C223.712 138.967 223.934 138.371 224.253 137.457C224.344 137.197 224.122 137.086 224.042 137.055C223.598 136.881 222.549 136.599 221.757 136.48C221.017 136.366 220.15 136.306 219.188 136.306C217.748 136.306 216.467 136.551 215.37 137.041C214.276 137.528 213.347 138.2 212.612 139.038C211.877 139.876 211.319 140.878 210.945 142.012C210.575 143.143 210.387 144.385 210.387 145.699C210.387 148.539 211.153 150.836 212.666 152.517C214.182 154.203 216.458 155.061 219.427 155.061C221.182 155.061 222.983 154.705 224.276 154.195C224.276 154.195 224.524 154.075 224.416 153.787L223.575 151.465ZM229.567 143.811C229.729 142.709 230.034 141.791 230.504 141.076C231.214 139.991 232.296 139.395 233.818 139.395C235.339 139.395 236.345 139.994 237.066 141.076C237.544 141.791 237.752 142.749 237.835 143.811H229.567ZM241.097 141.387C240.806 140.29 240.085 139.181 239.613 138.674C238.866 137.871 238.137 137.31 237.413 136.996C236.467 136.592 235.333 136.324 234.091 136.324C232.644 136.324 231.33 136.566 230.265 137.068C229.197 137.569 228.299 138.253 227.596 139.105C226.892 139.954 226.362 140.965 226.026 142.113C225.687 143.256 225.516 144.501 225.516 145.814C225.516 147.15 225.692 148.395 226.043 149.515C226.396 150.643 226.96 151.637 227.724 152.461C228.484 153.29 229.464 153.939 230.638 154.392C231.804 154.842 233.22 155.076 234.846 155.073C238.194 155.062 239.957 154.315 240.684 153.913C240.812 153.842 240.935 153.717 240.781 153.358L240.023 151.235C239.909 150.919 239.587 151.036 239.587 151.036C238.758 151.344 237.579 151.896 234.829 151.891C233.031 151.888 231.698 151.358 230.863 150.529C230.006 149.68 229.587 148.432 229.513 146.671L241.105 146.683C241.105 146.683 241.41 146.677 241.442 146.381C241.453 146.256 241.841 143.999 241.097 141.387ZM136.727 143.811C136.892 142.709 137.194 141.791 137.664 141.076C138.374 139.991 139.456 139.395 140.978 139.395C142.499 139.395 143.505 139.994 144.228 141.076C144.704 141.791 144.912 142.749 144.995 143.811H136.727ZM148.254 141.387C147.963 140.29 147.246 139.181 146.773 138.674C146.026 137.871 145.297 137.31 144.573 136.996C143.627 136.592 142.494 136.324 141.251 136.324C139.807 136.324 138.491 136.566 137.425 137.068C136.357 137.569 135.459 138.253 134.756 139.105C134.052 139.954 133.522 140.965 133.186 142.113C132.85 143.256 132.676 144.501 132.676 145.814C132.676 147.15 132.853 148.395 133.203 149.515C133.556 150.643 134.121 151.637 134.884 152.461C135.645 153.29 136.625 153.939 137.799 154.392C138.964 154.842 140.38 155.076 142.007 155.073C145.354 155.062 147.118 154.315 147.844 153.913C147.972 153.842 148.095 153.717 147.941 153.358L147.186 151.235C147.069 150.919 146.747 151.036 146.747 151.036C145.918 151.344 144.742 151.896 141.987 151.891C140.192 151.888 138.859 151.358 138.024 150.529C137.166 149.68 136.747 148.432 136.673 146.671L148.266 146.683C148.266 146.683 148.57 146.677 148.602 146.381C148.613 146.256 149 143.999 148.254 141.387ZM111.67 151.402C111.217 151.04 111.154 150.949 111 150.715C110.772 150.359 110.656 149.852 110.656 149.208C110.656 148.188 110.992 147.456 111.69 146.963C111.681 146.966 112.687 146.094 115.052 146.125C116.712 146.148 118.197 146.393 118.197 146.393V151.664H118.2C118.2 151.664 116.727 151.98 115.069 152.08C112.71 152.222 111.661 151.399 111.67 151.402ZM116.282 143.257C115.812 143.222 115.202 143.202 114.473 143.202C113.479 143.202 112.519 143.328 111.618 143.57C110.712 143.812 109.898 144.191 109.197 144.692C108.497 145.192 107.922 145.846 107.516 146.604C107.106 147.367 106.898 148.268 106.898 149.276C106.898 150.302 107.074 151.194 107.428 151.923C107.781 152.655 108.291 153.265 108.94 153.735C109.584 154.205 110.379 154.55 111.302 154.758C112.211 154.966 113.242 155.071 114.37 155.071C115.558 155.071 116.744 154.974 117.892 154.778C119.029 154.584 120.425 154.302 120.812 154.214C121.084 154.148 121.354 154.079 121.624 154.006C121.912 153.935 121.889 153.627 121.889 153.627L121.883 143.026C121.883 140.701 121.262 138.977 120.04 137.909C118.823 136.843 117.031 136.305 114.715 136.305C113.846 136.305 112.447 136.424 111.61 136.592C111.61 136.592 109.077 137.083 108.034 137.897C108.034 137.897 107.806 138.04 107.932 138.359L108.752 140.564C108.855 140.849 109.131 140.752 109.131 140.752C109.131 140.752 109.22 140.718 109.322 140.658C111.553 139.445 114.373 139.482 114.373 139.482C115.627 139.482 116.59 139.732 117.24 140.231C117.872 140.715 118.194 141.447 118.194 142.991V143.481C117.197 143.339 116.282 143.257 116.282 143.257ZM209.782 137.283C209.87 137.021 209.685 136.896 209.608 136.867C209.411 136.79 208.425 136.582 207.665 136.534C206.209 136.446 205.4 136.691 204.676 137.015C203.958 137.34 203.16 137.864 202.716 138.46V137.05C202.716 136.853 202.576 136.696 202.383 136.696H199.411C199.217 136.696 199.078 136.853 199.078 137.05V154.34C199.078 154.534 199.237 154.694 199.431 154.694H202.477C202.57 154.693 202.659 154.656 202.725 154.589C202.79 154.523 202.827 154.433 202.827 154.34V145.702C202.827 144.543 202.955 143.386 203.212 142.66C203.462 141.941 203.804 141.366 204.226 140.953C204.65 140.543 205.132 140.255 205.659 140.093C206.197 139.927 206.793 139.873 207.215 139.873C207.821 139.873 208.488 140.03 208.488 140.03C208.71 140.055 208.836 139.919 208.909 139.716C209.109 139.186 209.673 137.599 209.782 137.283Z" fill="white"/>
<path d="M181.194 129.27C180.824 129.156 180.487 129.079 180.049 128.997C179.604 128.917 179.074 128.877 178.473 128.877C176.376 128.877 174.724 129.47 173.564 130.638C172.41 131.8 171.627 133.569 171.234 135.897L171.091 136.68H168.459C168.459 136.68 168.14 136.669 168.071 137.017L167.641 139.43C167.61 139.658 167.71 139.803 168.017 139.803H170.579L167.98 154.31C167.778 155.478 167.544 156.438 167.285 157.167C167.031 157.886 166.784 158.424 166.476 158.817C166.18 159.193 165.9 159.472 165.416 159.635C165.017 159.769 164.555 159.831 164.051 159.831C163.772 159.831 163.399 159.785 163.122 159.729C162.849 159.674 162.704 159.615 162.496 159.526C162.496 159.526 162.197 159.412 162.077 159.712C161.983 159.959 161.299 161.837 161.216 162.068C161.137 162.298 161.251 162.478 161.396 162.532C161.738 162.652 161.991 162.731 162.456 162.843C163.1 162.994 163.644 163.002 164.153 163.002C165.219 163.002 166.193 162.851 167 162.561C167.809 162.267 168.515 161.757 169.142 161.068C169.817 160.321 170.242 159.541 170.647 158.472C171.048 157.418 171.393 156.108 171.666 154.581L174.279 139.803H178.097C178.097 139.803 178.418 139.814 178.484 139.464L178.917 137.054C178.946 136.823 178.849 136.681 178.538 136.681H174.832C174.852 136.598 175.02 135.293 175.444 134.065C175.627 133.544 175.968 133.119 176.256 132.829C176.541 132.544 176.869 132.342 177.228 132.225C177.595 132.105 178.014 132.048 178.473 132.048C178.821 132.048 179.165 132.088 179.424 132.142C179.783 132.219 179.923 132.259 180.017 132.288C180.396 132.401 180.447 132.29 180.521 132.108L181.408 129.675C181.499 129.412 181.274 129.301 181.194 129.27ZM129.406 154.341C129.406 154.535 129.267 154.692 129.073 154.692H125.999C125.805 154.692 125.668 154.535 125.668 154.341V129.601C125.668 129.407 125.805 129.25 125.999 129.25H129.073C129.267 129.25 129.406 129.407 129.406 129.601V154.341Z" fill="white"/>
</svg>
