<svg width="300" height="300" viewBox="0 0 300 300" fill="none" xmlns="http://www.w3.org/2000/svg">
<rect width="300" height="300" fill="white"/>
<path fill-rule="evenodd" clip-rule="evenodd" d="M150.61 60C130.501 60.0447 110.864 66.1013 94.2224 77.3916C77.5812 88.6819 64.6959 104.69 57.2223 123.36C49.7486 142.029 48.0279 162.507 52.2813 182.161C56.5347 201.816 66.5678 219.75 81.0916 233.659C84.5236 236.936 89.0166 238.873 93.755 239.12C98.4934 239.366 103.163 237.906 106.917 235.003C119.321 225.803 134.355 220.836 149.799 220.836C165.243 220.836 180.278 225.803 192.682 235.003C196.47 238.001 201.219 239.518 206.043 239.271C210.867 239.023 215.437 237.029 218.898 233.659C233.349 219.823 243.358 202.001 247.651 182.46C251.944 162.919 250.327 142.543 243.006 123.924C235.684 105.304 222.989 89.2841 206.536 77.901C190.083 66.5179 170.615 60.2867 150.61 60ZM150.048 210.859C143.397 211.075 136.773 209.929 130.581 207.493C124.389 205.057 118.76 201.381 114.039 196.692C109.318 192.002 105.605 186.398 103.128 180.222C100.651 174.047 99.461 167.43 99.6322 160.778C99.407 154.056 100.536 147.358 102.953 141.082C105.37 134.806 109.025 129.08 113.7 124.245C118.376 119.411 123.976 115.566 130.168 112.94C136.359 110.315 143.016 108.961 149.742 108.961C156.467 108.961 163.124 110.315 169.316 112.94C175.507 115.566 181.108 119.411 185.783 124.245C190.458 129.08 194.113 134.806 196.53 141.082C198.947 147.358 200.076 154.056 199.851 160.778C200.028 167.403 198.854 173.995 196.4 180.151C193.946 186.307 190.263 191.899 185.577 196.585C180.891 201.272 175.299 204.954 169.143 207.408C162.986 209.862 156.395 211.037 149.77 210.859" fill="#81B5A1"/>
</svg>
