<svg width="24" height="24" viewBox="0 0 24 24" fill="none" xmlns="http://www.w3.org/2000/svg">
<path d="M20.7927 3H3.20739C2.54164 3 2 3.54164 2 4.20739V16.3488C2 17.0145 2.54164 17.5562 3.20739 17.5562H9.23319V18.4347C9.23319 19.2401 8.57796 19.8953 7.7726 19.8953H6.44459C6.18998 19.8953 5.98353 20.1017 5.98353 20.3564C5.98353 20.611 6.18998 20.8174 6.44459 20.8174H17.5554C17.81 20.8174 18.0165 20.611 18.0165 20.3564C18.0165 20.1017 17.81 19.8953 17.5554 19.8953H16.2274C15.422 19.8953 14.7668 19.2401 14.7668 18.4347V17.5562H20.7926C21.4583 17.5562 22 17.0146 22 16.3488V4.20739C22.0001 3.54164 21.4584 3 20.7927 3ZM9.65315 19.8954C9.96745 19.4916 10.1554 18.9849 10.1554 18.4348V17.5563H13.8447V18.4348C13.8447 18.9849 14.0327 19.4917 14.347 19.8954H9.65315ZM21.078 16.3488C21.078 16.5061 20.95 16.6342 20.7927 16.6342H3.20739C3.05008 16.6342 2.92207 16.5062 2.92207 16.3488V13.9257H21.078V16.3488ZM21.078 13.0035H2.92211V4.20739C2.92211 4.05008 3.05008 3.92207 3.20743 3.92207H20.7927C20.95 3.92207 21.078 4.05004 21.078 4.20739V13.0035H21.078Z" fill="#005AD9"/>
<path d="M11.9995 15.7774C12.2743 15.7774 12.4971 15.5546 12.4971 15.2798C12.4971 15.005 12.2743 14.7822 11.9995 14.7822C11.7247 14.7822 11.502 15.005 11.502 15.2798C11.502 15.5546 11.7247 15.7774 11.9995 15.7774Z" fill="#005AD9"/>
<path d="M12.7916 6.17605C12.6115 5.99601 12.3197 5.99601 12.1395 6.17605L8.88112 9.43442C8.70108 9.61446 8.70108 9.90641 8.88112 10.0865C8.9712 10.1765 9.08913 10.2215 9.20718 10.2215C9.32523 10.2215 9.44316 10.1765 9.5332 10.0865L12.7916 6.82812C12.9716 6.64808 12.9716 6.35612 12.7916 6.17605Z" fill="#005AD9"/>
<path d="M14.7218 8.06472C14.5418 7.88468 14.25 7.88468 14.0698 8.06468L12.7717 9.36266C12.5917 9.54274 12.5917 9.83469 12.7717 10.0147C12.8618 10.1048 12.9798 10.1498 13.0978 10.1498C13.2157 10.1498 13.3337 10.1048 13.4238 10.0147L14.7218 8.71676C14.9019 8.53672 14.9019 8.24476 14.7218 8.06472Z" fill="#005AD9"/>
</svg>
