<svg width="24" height="24" viewBox="0 0 24 24" fill="none" xmlns="http://www.w3.org/2000/svg">
<path d="M18.5498 12.0488H18.2918V8.32878C18.2918 7.60353 17.7017 7.01362 16.9765 7.01362H16.2952C16.4943 6.74872 16.5329 6.40372 16.3936 6.09778C16.2448 5.77124 15.9296 5.5683 15.5708 5.5683H15.168V3.13023C15.168 2.50705 14.6611 2 14.0378 2C13.4146 2 12.9074 2.50705 12.9074 3.13023V5.5683H12.5048C12.146 5.5683 11.8307 5.77109 11.6819 6.09763C11.5426 6.40372 11.5812 6.74857 11.7805 7.01362H10.5038V5.55731H10.9065C11.2654 5.55731 11.5806 5.35452 11.7292 5.02798C11.878 4.70144 11.824 4.33034 11.5884 4.0598L10.0732 2.31861C9.8971 2.11612 9.64197 2 9.37357 2C9.10517 2 8.85004 2.11612 8.6738 2.31861L7.15859 4.05965C6.92299 4.33034 6.86897 4.70128 7.01775 5.02798C7.16652 5.35452 7.48177 5.55731 7.84051 5.55731H8.24319V7.01347H7.50618C6.78093 7.01347 6.19102 7.60353 6.19102 8.32878V9.65814C5.45127 9.75747 4.87891 10.3924 4.87891 11.159V20.4852C4.87891 21.3205 5.55839 22 6.39381 22H18.5498C19.3851 22 20.0647 21.3205 20.0647 20.4852V13.5637C20.0647 12.7284 19.3851 12.0488 18.5498 12.0488V12.0488ZM12.393 6.42142C12.408 6.38861 12.4394 6.34955 12.5048 6.34955H13.027C13.3918 6.34955 13.6886 6.05261 13.6886 5.68777V3.13023C13.6886 2.93781 13.8453 2.78126 14.0378 2.78126C14.2302 2.78126 14.3867 2.93781 14.3867 3.13023V5.68777C14.3867 6.05261 14.6837 6.34955 15.0485 6.34955H15.5707C15.6361 6.34955 15.6676 6.38861 15.6825 6.42142C15.6975 6.45423 15.7063 6.50382 15.6634 6.5531L15.1459 7.14774L14.1481 8.29415C14.1101 8.33779 14.0626 8.34435 14.0378 8.34435C14.0129 8.34435 13.9654 8.33779 13.9274 8.29415L12.4121 6.5531C12.3692 6.50382 12.378 6.45423 12.393 6.42142ZM7.84051 4.77605C7.7752 4.77605 7.74377 4.73699 7.72881 4.70418C7.71386 4.67138 7.70501 4.62194 7.74789 4.57265L9.26309 2.83146C9.30124 2.78782 9.3487 2.78126 9.37357 2.78126C9.39844 2.78126 9.4459 2.78782 9.48389 2.83146L10.9993 4.57265C11.0421 4.62194 11.0333 4.67138 11.0183 4.70418C11.0034 4.73699 10.9718 4.77605 10.9065 4.77605H10.3843C10.0195 4.77605 9.72254 5.07299 9.72254 5.43783V7.99538C9.72254 8.18779 9.56598 8.34435 9.37357 8.34435C9.181 8.34435 9.02445 8.18779 9.02445 7.99538V5.43783C9.02445 5.07299 8.72766 4.77605 8.36282 4.77605H7.84051ZM19.2835 20.4852C19.2835 20.8898 18.9543 21.2189 18.5498 21.2189H6.39381C5.9893 21.2189 5.66016 20.8898 5.66016 20.4852V11.159C5.66016 10.7545 5.9893 10.4254 6.39381 10.4254H9.96348C10.3681 10.4254 10.6971 10.7545 10.6971 11.159V11.8425C10.6971 12.3869 11.1402 12.83 11.6848 12.83H13.7349C13.9505 12.83 14.1255 12.6551 14.1255 12.4394C14.1255 12.2236 13.9505 12.0488 13.7349 12.0488H11.6848C11.571 12.0488 11.4784 11.9563 11.4784 11.8425V11.159C11.4784 10.3237 10.7989 9.6441 9.96348 9.6441H6.97228V8.32878C6.97228 8.03429 7.21184 7.79487 7.50618 7.79487H8.24319V7.99538C8.24319 8.05382 8.24761 8.11119 8.25631 8.16719C8.29354 8.41011 8.40829 8.62786 8.57461 8.79418C8.77939 8.99895 9.06198 9.1256 9.37357 9.1256C9.9383 9.1256 10.4077 8.70919 10.4908 8.16719C10.4994 8.11119 10.5038 8.05382 10.5038 7.99538V7.79487H12.4572L13.3381 8.807C13.5144 9.00948 13.7694 9.1256 14.0378 9.1256C14.3062 9.1256 14.5611 9.00948 14.7375 8.807L15.6184 7.79487H16.9765C17.271 7.79487 17.5105 8.03429 17.5105 8.32878V12.0488H16.8599C16.6441 12.0488 16.4693 12.2236 16.4693 12.4394C16.4693 12.6551 16.6441 12.83 16.8599 12.83H18.5498C18.9543 12.83 19.2835 13.1591 19.2835 13.5637V20.4852Z" fill="#005AD9"/>
<path d="M15.2993 12.8301C15.515 12.8301 15.6899 12.6552 15.6899 12.4395C15.6899 12.2237 15.515 12.0488 15.2993 12.0488H15.2984C15.0826 12.0488 14.9082 12.2237 14.9082 12.4395C14.9082 12.6552 15.0835 12.8301 15.2993 12.8301Z" fill="#005AD9"/>
</svg>
