<svg width="300" height="300" viewBox="0 0 300 300" fill="none" xmlns="http://www.w3.org/2000/svg">
<rect width="300" height="300" fill="white"/>
<path d="M230.469 50H69.5312C58.7444 50 50 58.7444 50 69.5312V230.469C50 241.256 58.7444 250 69.5312 250H230.469C241.256 250 250 241.256 250 230.469V69.5312C250 58.7444 241.256 50 230.469 50Z" fill="url(#paint0_linear)"/>
<path d="M214.625 76H172.375C167.197 76 163 80.1973 163 85.375V154.125C163 159.303 167.197 163.5 172.375 163.5H214.625C219.803 163.5 224 159.303 224 154.125V85.375C224 80.1973 219.803 76 214.625 76Z" fill="white"/>
<path d="M127.625 76H85.375C80.1973 76 76 80.1973 76 85.375V204.125C76 209.303 80.1973 213.5 85.375 213.5H127.625C132.803 213.5 137 209.303 137 204.125V85.375C137 80.1973 132.803 76 127.625 76Z" fill="white"/>
<defs>
<linearGradient id="paint0_linear" x1="150" y1="50" x2="150" y2="250" gradientUnits="userSpaceOnUse">
<stop stop-color="#0091E6"/>
<stop offset="1" stop-color="#0079BF"/>
</linearGradient>
</defs>
</svg>
