<svg width="300" height="300" viewBox="0 0 300 300" fill="none" xmlns="http://www.w3.org/2000/svg">
<rect width="300" height="300" fill="white"/>
<path d="M270 126.672V183.578L262.125 191.266V135.578L270 126.672Z" fill="#E79225"/>
<path d="M218.391 126.719L210.234 135.578L210.656 136.141L261.797 135.953L262.266 135.578L270 126.672L218.391 126.719Z" fill="#FFF16D"/>
<path d="M210.234 135.578H262.266V191.313H210.234V135.578Z" fill="url(#paint0_linear)"/>
<path d="M254.344 155.641C253.313 153.062 251.766 150.719 249.75 148.703C247.828 146.734 245.672 145.234 243.234 144.25C240.844 143.266 238.266 142.75 235.453 142.75C232.641 142.75 230.016 143.266 227.625 144.25C225.188 145.234 223.031 146.734 221.109 148.703C219.094 150.719 217.594 153.062 216.563 155.641C215.531 158.219 215.062 161.031 215.062 164.125C215.062 167.125 215.578 169.938 216.609 172.563C217.641 175.188 219.141 177.531 221.156 179.594C223.031 181.516 225.188 182.969 227.578 183.953C229.969 184.937 232.641 185.453 235.5 185.453C238.266 185.453 240.844 184.937 243.234 183.953C245.625 182.969 247.828 181.516 249.75 179.594C251.766 177.531 253.313 175.188 254.344 172.609C255.375 170.031 255.891 167.172 255.891 164.172C255.891 161.031 255.375 158.219 254.344 155.641ZM243.609 174.016C241.594 176.406 238.922 177.625 235.453 177.625C231.984 177.625 229.266 176.406 227.25 174.016C225.234 171.625 224.25 168.297 224.25 164.078C224.25 159.766 225.281 156.438 227.25 154C229.266 151.562 231.938 150.391 235.453 150.391C238.922 150.391 241.594 151.609 243.609 154C245.578 156.438 246.609 159.766 246.609 164.078C246.609 168.297 245.625 171.625 243.609 174.016Z" fill="white"/>
<path d="M205.125 122.031V122.313L211.781 173.453L207.891 184.234L207.375 183.859L200.531 134.828L200.672 134.172L204.938 122.313L205.125 122.031Z" fill="#009ADA"/>
<path d="M153.891 129.156L205.125 122.031L200.813 134.313L200.203 134.969L152.297 142L152.531 133.234L153.891 129.156Z" fill="#91C9ED"/>
<path d="M200.812 134.312L207.891 184.234L157.406 191.312L150.609 143.078L153.562 140.781L200.812 134.312Z" fill="url(#paint1_linear)"/>
<path d="M192.234 143.875C192 142.328 191.484 141.156 190.641 140.359C189.938 139.75 189.094 139.422 188.109 139.422C187.875 139.422 187.594 139.422 187.312 139.469C186 139.656 185.016 140.266 184.406 141.25C183.937 141.953 183.75 142.844 183.75 143.875C183.75 144.25 183.797 144.672 183.844 145.094L185.672 158.078L171.141 160.234L169.313 147.25C169.078 145.75 168.562 144.578 167.719 143.781C167.016 143.125 166.172 142.797 165.234 142.797C165 142.797 164.766 142.797 164.531 142.844C163.172 143.031 162.141 143.641 161.484 144.625C161.016 145.328 160.828 146.219 160.828 147.25C160.828 147.625 160.875 148.047 160.922 148.516L165.891 182.312C166.125 183.859 166.641 185.031 167.578 185.828C168.281 186.437 169.125 186.719 170.156 186.719C170.437 186.719 170.719 186.719 171 186.672C172.266 186.484 173.203 185.875 173.812 184.891C174.234 184.187 174.422 183.344 174.422 182.359C174.422 181.984 174.375 181.562 174.328 181.141L172.312 167.781L186.844 165.625L188.859 178.984C189.094 180.531 189.609 181.703 190.5 182.453C191.203 183.062 192.047 183.391 193.031 183.391C193.266 183.391 193.547 183.391 193.828 183.344C195.141 183.156 196.125 182.547 196.734 181.562C197.156 180.859 197.391 180.016 197.391 178.984C197.391 178.609 197.344 178.187 197.297 177.766L192.234 143.875Z" fill="white"/>
<path d="M105.938 109L87.7031 152.312L90.1875 171.344L90.3281 171.297L110.812 125.219L110.719 124.234L106.313 109.609L105.938 109Z" fill="#66BF6B"/>
<path d="M105.938 109L110.672 124.891L110.766 125.219L155.859 145.422L156 145.328L152.156 130.141L105.938 109Z" fill="#98D0A0"/>
<path d="M110.672 124.891L156 145.328L135.516 191.781L90.1875 171.344L110.672 124.891Z" fill="url(#paint2_linear)"/>
<path d="M142.266 149.078C141.281 146.453 139.922 144.203 138.141 142.328C136.359 140.453 134.203 138.953 131.672 137.875C129.141 136.797 126.609 136.281 124.031 136.281H123.891C121.266 136.281 118.688 136.891 116.156 138.016C113.484 139.188 111.188 140.781 109.219 142.891C107.25 144.953 105.656 147.484 104.438 150.391C103.219 153.25 102.563 156.156 102.422 159.016V160C102.422 162.531 102.844 165.016 103.734 167.453C104.672 170.031 106.031 172.234 107.813 174.109C109.594 175.984 111.797 177.484 114.422 178.562C116.906 179.641 119.438 180.156 122.016 180.156H122.062C124.641 180.156 127.219 179.594 129.75 178.516C132.422 177.344 134.766 175.703 136.734 173.594C138.703 171.531 140.344 169.047 141.563 166.141C142.781 163.234 143.438 160.375 143.578 157.516V156.672C143.625 154.094 143.203 151.562 142.266 149.078ZM133.219 162.578C131.531 166.609 129.234 169.375 126.469 170.875C124.969 171.672 123.422 172.094 121.875 172.094C120.516 172.094 119.062 171.766 117.609 171.156C114.422 169.797 112.453 167.641 111.609 164.547C111.328 163.516 111.188 162.437 111.188 161.312C111.188 159.062 111.75 156.578 112.875 153.906C114.609 149.781 116.906 146.969 119.672 145.422C121.172 144.578 122.719 144.203 124.266 144.203C125.672 144.203 127.078 144.531 128.578 145.141C131.719 146.5 133.688 148.656 134.531 151.75C134.813 152.734 134.953 153.812 134.953 154.938C134.953 157.281 134.391 159.813 133.219 162.578Z" fill="white"/>
<path d="M84.0938 116.359L91.5 165.953L88.125 183.391L87.6563 182.781L80.4375 134.875V133.938L83.625 117.203L84.0938 116.359Z" fill="#760D16"/>
<path d="M30 142L33.5156 124.469L84.0938 116.359L80.6719 134.219V135.391L30.6094 142.469L30 142Z" fill="#EF463E"/>
<path d="M80.6719 134.219L88.125 183.391L38.0625 191.219L30 142L80.6719 134.219Z" fill="url(#paint3_linear)"/>
<path d="M75.2812 175.562C74.9062 175.094 74.3438 174.766 73.6875 174.531C73.0312 174.297 72.2344 174.203 71.25 174.203C70.3594 174.203 69.3281 174.297 68.2031 174.484L54.9844 176.734C55.125 175.703 55.6406 174.391 56.5312 172.75C57.5156 170.922 59.0156 168.719 60.9375 166.187C61.5938 165.297 62.1094 164.641 62.4844 164.172C62.7188 163.844 63.0938 163.422 63.5625 162.812C66.6094 158.828 68.4375 155.594 69.1875 153.062C69.6094 151.609 69.8437 150.156 69.9375 148.703C69.9844 148.281 69.9844 147.906 69.9844 147.531C69.9844 146.5 69.8906 145.469 69.7031 144.437C69.5625 143.5 69.3281 142.75 69 142.141C68.6719 141.531 68.2969 141.062 67.8281 140.781C67.3125 140.453 66.5156 140.312 65.5313 140.312C64.7344 140.312 63.75 140.406 62.5781 140.594L47.2969 143.219C45.4688 143.547 44.0625 144.062 43.2188 144.906C42.5156 145.562 42.1875 146.406 42.1875 147.344C42.1875 147.578 42.1875 147.859 42.2344 148.141C42.4688 149.453 43.125 150.391 44.2031 150.859C44.8594 151.141 45.6094 151.281 46.5469 151.281C47.1562 151.281 47.8594 151.234 48.6094 151.094L61.3594 148.844C61.3594 149.078 61.4062 149.312 61.4062 149.5C61.4062 150.297 61.2656 151.094 60.9844 151.844C60.6094 152.922 59.6719 154.422 58.125 156.344C57.7031 156.859 57.0469 157.703 56.1562 158.781C52.6875 162.953 50.25 166.516 48.75 169.469C47.6719 171.531 46.9687 173.5 46.5469 175.516C46.3125 176.687 46.1719 177.766 46.1719 178.844C46.1719 179.594 46.2188 180.344 46.3594 181.047C46.5469 182.078 46.7812 182.922 47.1094 183.578C47.4375 184.234 47.9062 184.75 48.4219 185.031C48.9375 185.312 49.6406 185.406 50.6719 185.406C51.9375 185.406 53.6719 185.219 55.875 184.844L69.75 182.453C72.1875 182.031 73.9219 181.422 74.9062 180.625C75.7031 179.969 76.125 179.078 76.125 178.047C76.125 177.766 76.0781 177.484 76.0312 177.203C75.9375 176.594 75.7031 176.031 75.2812 175.562Z" fill="white"/>
<defs>
<linearGradient id="paint0_linear" x1="236.248" y1="136.376" x2="236.248" y2="189.63" gradientUnits="userSpaceOnUse">
<stop offset="0.00562" stop-color="#FFE513"/>
<stop offset="1" stop-color="#FDB924"/>
</linearGradient>
<linearGradient id="paint1_linear" x1="153.194" y1="142.004" x2="205.209" y2="184.189" gradientUnits="userSpaceOnUse">
<stop offset="0.00562" stop-color="#008CD2"/>
<stop offset="1" stop-color="#00649D"/>
</linearGradient>
<linearGradient id="paint2_linear" x1="123.095" y1="143.472" x2="123.095" y2="190.128" gradientUnits="userSpaceOnUse">
<stop stop-color="#26A146"/>
<stop offset="1" stop-color="#008A52"/>
</linearGradient>
<linearGradient id="paint3_linear" x1="55.4204" y1="138.897" x2="63.1473" y2="187.389" gradientUnits="userSpaceOnUse">
<stop stop-color="#D92231"/>
<stop offset="1" stop-color="#BA2234"/>
</linearGradient>
</defs>
</svg>
